G75*
G70*
%OFA0B0*%
%FSLAX24Y24*%
%IPPOS*%
%LPD*%
%AMOC8*
5,1,8,0,0,1.08239X$1,22.5*
%
%ADD10C,0.1080*%
%ADD11C,0.0820*%
%ADD12C,0.1346*%
%ADD13C,0.0513*%
%ADD14C,0.0670*%
%ADD15OC8,0.0820*%
%ADD16R,0.0820X0.0820*%
%ADD17C,0.0440*%
%ADD18C,0.0480*%
D10*
X001326Y013113D03*
X001326Y034313D03*
X014526Y034313D03*
X014526Y013113D03*
D11*
X014326Y017813D03*
X014326Y018813D03*
X014326Y019813D03*
X014326Y020813D03*
X014326Y021813D03*
X014326Y022813D03*
X014326Y023813D03*
X014326Y024813D03*
X014326Y025813D03*
X014326Y026813D03*
X014326Y027813D03*
X014326Y028813D03*
X014326Y029813D03*
X014326Y030813D03*
X014326Y031813D03*
X013326Y031813D03*
X013326Y030813D03*
X013326Y029813D03*
X013326Y028813D03*
X013326Y027813D03*
X013326Y026813D03*
X013326Y025813D03*
X013326Y024813D03*
X013326Y023813D03*
X013326Y022813D03*
X013326Y021813D03*
X013326Y020813D03*
X013326Y019813D03*
X013326Y018813D03*
X009304Y014058D03*
X008369Y014058D03*
X007482Y014058D03*
X006548Y014058D03*
D12*
X005642Y013113D03*
X010209Y013113D03*
D13*
X008811Y013074D03*
X007040Y013074D03*
D14*
X003926Y023352D03*
X003926Y025274D03*
D15*
X005226Y021713D03*
X005226Y020713D03*
X006226Y020713D03*
X006226Y021713D03*
X007226Y021713D03*
X007226Y020713D03*
D16*
X013326Y017813D03*
D17*
X010026Y019313D03*
X009026Y019713D03*
X009126Y016913D03*
X008726Y016213D03*
X008126Y015613D03*
X007726Y016213D03*
X007726Y016913D03*
X006626Y017613D03*
X006626Y018213D03*
X009526Y016313D03*
X006026Y024213D03*
X006376Y024613D03*
X006696Y025013D03*
X007026Y025413D03*
X006316Y027073D03*
X006226Y028013D03*
X006726Y028713D03*
X007426Y029513D03*
X008576Y029863D03*
X010826Y027613D03*
X010798Y026741D03*
X012126Y025713D03*
X012626Y027613D03*
X002526Y031013D03*
X001926Y030613D03*
X001926Y021013D03*
X002526Y021013D03*
X002126Y019213D03*
X000726Y018213D03*
X000726Y017613D03*
D18*
X005326Y032313D03*
X010226Y014113D03*
X010726Y014113D03*
M02*
