G75*
G70*
%OFA0B0*%
%FSLAX24Y24*%
%IPPOS*%
%LPD*%
%AMOC8*
5,1,8,0,0,1.08239X$1,22.5*
%
%ADD10C,0.1080*%
%ADD11C,0.0820*%
%ADD12C,0.1346*%
%ADD13C,0.0513*%
%ADD14R,0.0630X0.0217*%
%ADD15R,0.0513X0.0474*%
%ADD16R,0.0474X0.0513*%
%ADD17R,0.0395X0.0395*%
%ADD18R,0.0395X0.0552*%
%ADD19R,0.0580X0.0300*%
%ADD20R,0.0300X0.0580*%
%ADD21C,0.0670*%
%ADD22OC8,0.0820*%
%ADD23R,0.0986X0.0710*%
%ADD24R,0.0820X0.0820*%
%ADD25R,0.0330X0.0580*%
%ADD26R,0.0580X0.0330*%
%ADD27C,0.0440*%
%ADD28C,0.0480*%
D10*
X001326Y013113D03*
X001326Y034313D03*
X014526Y034313D03*
X014526Y013113D03*
D11*
X014326Y017813D03*
X014326Y018813D03*
X014326Y019813D03*
X014326Y020813D03*
X014326Y021813D03*
X014326Y022813D03*
X014326Y023813D03*
X014326Y024813D03*
X014326Y025813D03*
X014326Y026813D03*
X014326Y027813D03*
X014326Y028813D03*
X014326Y029813D03*
X014326Y030813D03*
X014326Y031813D03*
X013326Y031813D03*
X013326Y030813D03*
X013326Y029813D03*
X013326Y028813D03*
X013326Y027813D03*
X013326Y026813D03*
X013326Y025813D03*
X013326Y024813D03*
X013326Y023813D03*
X013326Y022813D03*
X013326Y021813D03*
X013326Y020813D03*
X013326Y019813D03*
X013326Y018813D03*
X009304Y014058D03*
X008369Y014058D03*
X007482Y014058D03*
X006548Y014058D03*
D12*
X005642Y013113D03*
X010209Y013113D03*
D13*
X008811Y013074D03*
X007040Y013074D03*
D14*
X005565Y015550D03*
X005565Y015806D03*
X005565Y016061D03*
X005565Y016317D03*
X005565Y016573D03*
X005565Y016829D03*
X005565Y017085D03*
X005565Y017341D03*
X005565Y017597D03*
X005565Y017853D03*
X005565Y018109D03*
X005565Y018365D03*
X005565Y018620D03*
X005565Y018876D03*
X002686Y018876D03*
X002686Y018620D03*
X002686Y018365D03*
X002686Y018109D03*
X002686Y017853D03*
X002686Y017597D03*
X002686Y017341D03*
X002686Y017085D03*
X002686Y016829D03*
X002686Y016573D03*
X002686Y016317D03*
X002686Y016061D03*
X002686Y015806D03*
X002686Y015550D03*
D15*
X006491Y016213D03*
X006491Y016813D03*
X007160Y016813D03*
X007160Y016213D03*
X009391Y015013D03*
X010060Y015013D03*
X010891Y025713D03*
X011560Y025713D03*
X011391Y027613D03*
X012060Y027613D03*
X010460Y030813D03*
X009791Y030813D03*
X005810Y027413D03*
X005810Y026813D03*
X005141Y026813D03*
X005141Y027413D03*
D16*
X005326Y026048D03*
X005326Y025378D03*
X005326Y023548D03*
X005326Y022878D03*
X004226Y020548D03*
X004226Y019878D03*
X003526Y019878D03*
X003526Y020548D03*
X002526Y020448D03*
X002526Y019778D03*
X001926Y019778D03*
X001926Y020448D03*
X001726Y018748D03*
X001726Y018078D03*
X008726Y015648D03*
X008726Y014978D03*
X011426Y026328D03*
X011426Y026998D03*
X012026Y026998D03*
X012026Y026328D03*
X012426Y033278D03*
X012426Y033948D03*
X004126Y033848D03*
X004126Y033178D03*
X003526Y033178D03*
X003526Y033848D03*
D17*
X003521Y034513D03*
X004030Y034513D03*
X004621Y034513D03*
X002930Y034513D03*
X012430Y034513D03*
X013021Y034513D03*
D18*
X010180Y015713D03*
X009471Y015713D03*
D19*
X010216Y026111D03*
X010216Y026426D03*
X010216Y026741D03*
X010216Y027056D03*
X010216Y027370D03*
X010216Y027685D03*
X010216Y028000D03*
X010216Y028315D03*
X006836Y028315D03*
X006836Y028000D03*
X006836Y027685D03*
X006836Y027370D03*
X006836Y027056D03*
X006836Y026741D03*
X006836Y026426D03*
X006836Y026111D03*
D20*
X007423Y025523D03*
X007738Y025523D03*
X008053Y025523D03*
X008368Y025523D03*
X008683Y025523D03*
X008998Y025523D03*
X009313Y025523D03*
X009628Y025523D03*
X009628Y028903D03*
X009313Y028903D03*
X008998Y028903D03*
X008683Y028903D03*
X008368Y028903D03*
X008053Y028903D03*
X007738Y028903D03*
X007423Y028903D03*
D21*
X003926Y025274D03*
X003926Y023352D03*
D22*
X005226Y021713D03*
X005226Y020713D03*
X006226Y020713D03*
X006226Y021713D03*
X007226Y021713D03*
X007226Y020713D03*
D23*
X007185Y033713D03*
X009666Y033713D03*
D24*
X013326Y017813D03*
D25*
X005188Y033213D03*
X004863Y033213D03*
D26*
X014326Y033075D03*
X014326Y032751D03*
D27*
X012626Y027613D03*
X012126Y025713D03*
X010798Y026741D03*
X010826Y027613D03*
X008576Y029863D03*
X007426Y029513D03*
X006726Y028713D03*
X006226Y028013D03*
X006316Y027073D03*
X007026Y025413D03*
X006696Y025013D03*
X006376Y024613D03*
X006026Y024213D03*
X009026Y019713D03*
X010026Y019313D03*
X009126Y016913D03*
X008726Y016213D03*
X008126Y015613D03*
X007726Y016213D03*
X007726Y016913D03*
X006626Y017613D03*
X006626Y018213D03*
X009526Y016313D03*
X002526Y021013D03*
X001926Y021013D03*
X002126Y019213D03*
X000726Y018213D03*
X000726Y017613D03*
X001926Y030613D03*
X002526Y031013D03*
D28*
X005326Y032313D03*
X010226Y014113D03*
X010726Y014113D03*
M02*
