G75*
G70*
%OFA0B0*%
%FSLAX24Y24*%
%IPPOS*%
%LPD*%
%AMOC8*
5,1,8,0,0,1.08239X$1,22.5*
%
%ADD10C,0.0000*%
D10*
X000126Y011913D02*
X000126Y035513D01*
X015726Y035513D01*
X015726Y011913D01*
X000126Y011913D01*
X000826Y013113D02*
X000828Y013157D01*
X000834Y013201D01*
X000844Y013244D01*
X000857Y013286D01*
X000874Y013327D01*
X000895Y013366D01*
X000919Y013403D01*
X000946Y013438D01*
X000976Y013470D01*
X001009Y013500D01*
X001045Y013526D01*
X001082Y013550D01*
X001122Y013569D01*
X001163Y013586D01*
X001206Y013598D01*
X001249Y013607D01*
X001293Y013612D01*
X001337Y013613D01*
X001381Y013610D01*
X001425Y013603D01*
X001468Y013592D01*
X001510Y013578D01*
X001550Y013560D01*
X001589Y013538D01*
X001625Y013514D01*
X001659Y013486D01*
X001691Y013455D01*
X001720Y013421D01*
X001746Y013385D01*
X001768Y013347D01*
X001787Y013307D01*
X001802Y013265D01*
X001814Y013223D01*
X001822Y013179D01*
X001826Y013135D01*
X001826Y013091D01*
X001822Y013047D01*
X001814Y013003D01*
X001802Y012961D01*
X001787Y012919D01*
X001768Y012879D01*
X001746Y012841D01*
X001720Y012805D01*
X001691Y012771D01*
X001659Y012740D01*
X001625Y012712D01*
X001589Y012688D01*
X001550Y012666D01*
X001510Y012648D01*
X001468Y012634D01*
X001425Y012623D01*
X001381Y012616D01*
X001337Y012613D01*
X001293Y012614D01*
X001249Y012619D01*
X001206Y012628D01*
X001163Y012640D01*
X001122Y012657D01*
X001082Y012676D01*
X001045Y012700D01*
X001009Y012726D01*
X000976Y012756D01*
X000946Y012788D01*
X000919Y012823D01*
X000895Y012860D01*
X000874Y012899D01*
X000857Y012940D01*
X000844Y012982D01*
X000834Y013025D01*
X000828Y013069D01*
X000826Y013113D01*
X006823Y013074D02*
X006825Y013103D01*
X006831Y013131D01*
X006840Y013159D01*
X006853Y013185D01*
X006870Y013208D01*
X006889Y013230D01*
X006911Y013249D01*
X006936Y013264D01*
X006962Y013277D01*
X006990Y013285D01*
X007018Y013290D01*
X007047Y013291D01*
X007076Y013288D01*
X007104Y013281D01*
X007131Y013271D01*
X007157Y013257D01*
X007180Y013240D01*
X007201Y013220D01*
X007219Y013197D01*
X007234Y013172D01*
X007245Y013145D01*
X007253Y013117D01*
X007257Y013088D01*
X007257Y013060D01*
X007253Y013031D01*
X007245Y013003D01*
X007234Y012976D01*
X007219Y012951D01*
X007201Y012928D01*
X007180Y012908D01*
X007157Y012891D01*
X007131Y012877D01*
X007104Y012867D01*
X007076Y012860D01*
X007047Y012857D01*
X007018Y012858D01*
X006990Y012863D01*
X006962Y012871D01*
X006936Y012884D01*
X006911Y012899D01*
X006889Y012918D01*
X006870Y012940D01*
X006853Y012963D01*
X006840Y012989D01*
X006831Y013017D01*
X006825Y013045D01*
X006823Y013074D01*
X008594Y013074D02*
X008596Y013103D01*
X008602Y013131D01*
X008611Y013159D01*
X008624Y013185D01*
X008641Y013208D01*
X008660Y013230D01*
X008682Y013249D01*
X008707Y013264D01*
X008733Y013277D01*
X008761Y013285D01*
X008789Y013290D01*
X008818Y013291D01*
X008847Y013288D01*
X008875Y013281D01*
X008902Y013271D01*
X008928Y013257D01*
X008951Y013240D01*
X008972Y013220D01*
X008990Y013197D01*
X009005Y013172D01*
X009016Y013145D01*
X009024Y013117D01*
X009028Y013088D01*
X009028Y013060D01*
X009024Y013031D01*
X009016Y013003D01*
X009005Y012976D01*
X008990Y012951D01*
X008972Y012928D01*
X008951Y012908D01*
X008928Y012891D01*
X008902Y012877D01*
X008875Y012867D01*
X008847Y012860D01*
X008818Y012857D01*
X008789Y012858D01*
X008761Y012863D01*
X008733Y012871D01*
X008707Y012884D01*
X008682Y012899D01*
X008660Y012918D01*
X008641Y012940D01*
X008624Y012963D01*
X008611Y012989D01*
X008602Y013017D01*
X008596Y013045D01*
X008594Y013074D01*
X014026Y013113D02*
X014028Y013157D01*
X014034Y013201D01*
X014044Y013244D01*
X014057Y013286D01*
X014074Y013327D01*
X014095Y013366D01*
X014119Y013403D01*
X014146Y013438D01*
X014176Y013470D01*
X014209Y013500D01*
X014245Y013526D01*
X014282Y013550D01*
X014322Y013569D01*
X014363Y013586D01*
X014406Y013598D01*
X014449Y013607D01*
X014493Y013612D01*
X014537Y013613D01*
X014581Y013610D01*
X014625Y013603D01*
X014668Y013592D01*
X014710Y013578D01*
X014750Y013560D01*
X014789Y013538D01*
X014825Y013514D01*
X014859Y013486D01*
X014891Y013455D01*
X014920Y013421D01*
X014946Y013385D01*
X014968Y013347D01*
X014987Y013307D01*
X015002Y013265D01*
X015014Y013223D01*
X015022Y013179D01*
X015026Y013135D01*
X015026Y013091D01*
X015022Y013047D01*
X015014Y013003D01*
X015002Y012961D01*
X014987Y012919D01*
X014968Y012879D01*
X014946Y012841D01*
X014920Y012805D01*
X014891Y012771D01*
X014859Y012740D01*
X014825Y012712D01*
X014789Y012688D01*
X014750Y012666D01*
X014710Y012648D01*
X014668Y012634D01*
X014625Y012623D01*
X014581Y012616D01*
X014537Y012613D01*
X014493Y012614D01*
X014449Y012619D01*
X014406Y012628D01*
X014363Y012640D01*
X014322Y012657D01*
X014282Y012676D01*
X014245Y012700D01*
X014209Y012726D01*
X014176Y012756D01*
X014146Y012788D01*
X014119Y012823D01*
X014095Y012860D01*
X014074Y012899D01*
X014057Y012940D01*
X014044Y012982D01*
X014034Y013025D01*
X014028Y013069D01*
X014026Y013113D01*
X014026Y034313D02*
X014028Y034357D01*
X014034Y034401D01*
X014044Y034444D01*
X014057Y034486D01*
X014074Y034527D01*
X014095Y034566D01*
X014119Y034603D01*
X014146Y034638D01*
X014176Y034670D01*
X014209Y034700D01*
X014245Y034726D01*
X014282Y034750D01*
X014322Y034769D01*
X014363Y034786D01*
X014406Y034798D01*
X014449Y034807D01*
X014493Y034812D01*
X014537Y034813D01*
X014581Y034810D01*
X014625Y034803D01*
X014668Y034792D01*
X014710Y034778D01*
X014750Y034760D01*
X014789Y034738D01*
X014825Y034714D01*
X014859Y034686D01*
X014891Y034655D01*
X014920Y034621D01*
X014946Y034585D01*
X014968Y034547D01*
X014987Y034507D01*
X015002Y034465D01*
X015014Y034423D01*
X015022Y034379D01*
X015026Y034335D01*
X015026Y034291D01*
X015022Y034247D01*
X015014Y034203D01*
X015002Y034161D01*
X014987Y034119D01*
X014968Y034079D01*
X014946Y034041D01*
X014920Y034005D01*
X014891Y033971D01*
X014859Y033940D01*
X014825Y033912D01*
X014789Y033888D01*
X014750Y033866D01*
X014710Y033848D01*
X014668Y033834D01*
X014625Y033823D01*
X014581Y033816D01*
X014537Y033813D01*
X014493Y033814D01*
X014449Y033819D01*
X014406Y033828D01*
X014363Y033840D01*
X014322Y033857D01*
X014282Y033876D01*
X014245Y033900D01*
X014209Y033926D01*
X014176Y033956D01*
X014146Y033988D01*
X014119Y034023D01*
X014095Y034060D01*
X014074Y034099D01*
X014057Y034140D01*
X014044Y034182D01*
X014034Y034225D01*
X014028Y034269D01*
X014026Y034313D01*
X000826Y034313D02*
X000828Y034357D01*
X000834Y034401D01*
X000844Y034444D01*
X000857Y034486D01*
X000874Y034527D01*
X000895Y034566D01*
X000919Y034603D01*
X000946Y034638D01*
X000976Y034670D01*
X001009Y034700D01*
X001045Y034726D01*
X001082Y034750D01*
X001122Y034769D01*
X001163Y034786D01*
X001206Y034798D01*
X001249Y034807D01*
X001293Y034812D01*
X001337Y034813D01*
X001381Y034810D01*
X001425Y034803D01*
X001468Y034792D01*
X001510Y034778D01*
X001550Y034760D01*
X001589Y034738D01*
X001625Y034714D01*
X001659Y034686D01*
X001691Y034655D01*
X001720Y034621D01*
X001746Y034585D01*
X001768Y034547D01*
X001787Y034507D01*
X001802Y034465D01*
X001814Y034423D01*
X001822Y034379D01*
X001826Y034335D01*
X001826Y034291D01*
X001822Y034247D01*
X001814Y034203D01*
X001802Y034161D01*
X001787Y034119D01*
X001768Y034079D01*
X001746Y034041D01*
X001720Y034005D01*
X001691Y033971D01*
X001659Y033940D01*
X001625Y033912D01*
X001589Y033888D01*
X001550Y033866D01*
X001510Y033848D01*
X001468Y033834D01*
X001425Y033823D01*
X001381Y033816D01*
X001337Y033813D01*
X001293Y033814D01*
X001249Y033819D01*
X001206Y033828D01*
X001163Y033840D01*
X001122Y033857D01*
X001082Y033876D01*
X001045Y033900D01*
X001009Y033926D01*
X000976Y033956D01*
X000946Y033988D01*
X000919Y034023D01*
X000895Y034060D01*
X000874Y034099D01*
X000857Y034140D01*
X000844Y034182D01*
X000834Y034225D01*
X000828Y034269D01*
X000826Y034313D01*
M02*
