G75*
G70*
%OFA0B0*%
%FSLAX24Y24*%
%IPPOS*%
%LPD*%
%AMOC8*
5,1,8,0,0,1.08239X$1,22.5*
%
%ADD10C,0.0740*%
%ADD11C,0.1266*%
%ADD12C,0.0590*%
%ADD13OC8,0.0740*%
%ADD14R,0.0740X0.0740*%
%ADD15C,0.0160*%
%ADD16C,0.0360*%
%ADD17C,0.0100*%
%ADD18C,0.0400*%
%ADD19C,0.0400*%
D10*
X006548Y014058D03*
X007482Y014058D03*
X008369Y014058D03*
X009304Y014058D03*
X013326Y018813D03*
X013326Y019813D03*
X013326Y020813D03*
X013326Y021813D03*
X013326Y022813D03*
X013326Y023813D03*
X013326Y024813D03*
X013326Y025813D03*
X013326Y026813D03*
X013326Y027813D03*
X013326Y028813D03*
X013326Y029813D03*
X013326Y030813D03*
X013326Y031813D03*
X014326Y031813D03*
X014326Y030813D03*
X014326Y029813D03*
X014326Y028813D03*
X014326Y027813D03*
X014326Y026813D03*
X014326Y025813D03*
X014326Y024813D03*
X014326Y023813D03*
X014326Y022813D03*
X014326Y021813D03*
X014326Y020813D03*
X014326Y019813D03*
X014326Y018813D03*
X014326Y017813D03*
D11*
X010209Y013113D03*
X005642Y013113D03*
D12*
X003926Y023352D03*
X003926Y025274D03*
D13*
X005226Y021713D03*
X005226Y020713D03*
X006226Y020713D03*
X006226Y021713D03*
X007226Y021713D03*
X007226Y020713D03*
D14*
X013326Y017813D03*
D15*
X002156Y012558D02*
X001992Y012393D01*
X005308Y012393D01*
X005193Y012441D01*
X004970Y012664D01*
X004849Y012955D01*
X004849Y013271D01*
X004970Y013562D01*
X005193Y013785D01*
X005484Y013906D01*
X005800Y013906D01*
X006063Y013797D01*
X006038Y013847D01*
X006011Y013929D01*
X005998Y014015D01*
X005998Y014048D01*
X006538Y014048D01*
X006538Y014068D01*
X006538Y014608D01*
X006504Y014608D01*
X006419Y014594D01*
X006337Y014568D01*
X006259Y014528D01*
X006189Y014477D01*
X006128Y014416D01*
X006077Y014346D01*
X006038Y014269D01*
X006011Y014187D01*
X005998Y014101D01*
X005998Y014068D01*
X006538Y014068D01*
X006558Y014068D01*
X006558Y014608D01*
X006591Y014608D01*
X006676Y014594D01*
X006759Y014568D01*
X006836Y014528D01*
X006906Y014477D01*
X006967Y014416D01*
X007018Y014346D01*
X007023Y014336D01*
X007033Y014358D01*
X007182Y014507D01*
X007376Y014588D01*
X007587Y014588D01*
X007782Y014507D01*
X007926Y014364D01*
X008069Y014507D01*
X008264Y014588D01*
X008475Y014588D01*
X008670Y014507D01*
X008819Y014358D01*
X008836Y014315D01*
X008854Y014358D01*
X009003Y014507D01*
X009198Y014588D01*
X009409Y014588D01*
X009604Y014507D01*
X009753Y014358D01*
X009834Y014163D01*
X009834Y013952D01*
X009765Y013788D01*
X009961Y013869D01*
X009920Y013909D01*
X009866Y014041D01*
X009866Y014185D01*
X009920Y014317D01*
X010022Y014418D01*
X010154Y014473D01*
X010297Y014473D01*
X010430Y014418D01*
X010476Y014372D01*
X010522Y014418D01*
X010654Y014473D01*
X010797Y014473D01*
X010930Y014418D01*
X011031Y014317D01*
X011086Y014185D01*
X011086Y014041D01*
X011031Y013909D01*
X010930Y013808D01*
X010797Y013753D01*
X010691Y013753D01*
X010881Y013562D01*
X011002Y013271D01*
X011002Y012955D01*
X010881Y012664D01*
X010658Y012441D01*
X010543Y012393D01*
X013860Y012393D01*
X013695Y012558D01*
X013546Y012918D01*
X013546Y013308D01*
X013695Y013668D01*
X013970Y013944D01*
X014331Y014093D01*
X014721Y014093D01*
X015081Y013944D01*
X015246Y013779D01*
X015246Y033647D01*
X015081Y033482D01*
X014721Y033333D01*
X014331Y033333D01*
X014303Y033344D01*
X014530Y033118D01*
X014631Y033017D01*
X014686Y032885D01*
X014686Y032203D01*
X014775Y032113D01*
X014856Y031918D01*
X014856Y031708D01*
X014775Y031513D01*
X014626Y031364D01*
X014503Y031313D01*
X014626Y031262D01*
X014775Y031113D01*
X014856Y030918D01*
X014856Y030708D01*
X014775Y030513D01*
X014626Y030364D01*
X014503Y030313D01*
X014626Y030262D01*
X014775Y030113D01*
X014856Y029918D01*
X014856Y029708D01*
X014775Y029513D01*
X014626Y029364D01*
X014503Y029313D01*
X014626Y029262D01*
X014775Y029113D01*
X014856Y028918D01*
X014856Y028708D01*
X014775Y028513D01*
X014626Y028364D01*
X014503Y028313D01*
X014626Y028262D01*
X014775Y028113D01*
X014856Y027918D01*
X014856Y027708D01*
X014775Y027513D01*
X014626Y027364D01*
X014503Y027313D01*
X014626Y027262D01*
X014775Y027113D01*
X014856Y026918D01*
X014856Y026708D01*
X014775Y026513D01*
X014626Y026364D01*
X014503Y026313D01*
X014626Y026262D01*
X014775Y026113D01*
X014856Y025918D01*
X014856Y025708D01*
X014775Y025513D01*
X014626Y025364D01*
X014503Y025313D01*
X014626Y025262D01*
X014775Y025113D01*
X014856Y024918D01*
X014856Y024708D01*
X014775Y024513D01*
X014626Y024364D01*
X014503Y024313D01*
X014626Y024262D01*
X014775Y024113D01*
X014856Y023918D01*
X014856Y023708D01*
X014775Y023513D01*
X014626Y023364D01*
X014503Y023313D01*
X014626Y023262D01*
X014775Y023113D01*
X014856Y022918D01*
X014856Y022708D01*
X014775Y022513D01*
X014626Y022364D01*
X014503Y022313D01*
X014626Y022262D01*
X014775Y022113D01*
X014856Y021918D01*
X014856Y021708D01*
X014775Y021513D01*
X014626Y021364D01*
X014503Y021313D01*
X014626Y021262D01*
X014775Y021113D01*
X014856Y020918D01*
X014856Y020708D01*
X014775Y020513D01*
X014626Y020364D01*
X014503Y020313D01*
X014626Y020262D01*
X014775Y020113D01*
X014856Y019918D01*
X014856Y019708D01*
X014775Y019513D01*
X014626Y019364D01*
X014503Y019313D01*
X014626Y019262D01*
X014775Y019113D01*
X014856Y018918D01*
X014856Y018708D01*
X014775Y018513D01*
X014626Y018364D01*
X014503Y018313D01*
X014626Y018262D01*
X014775Y018113D01*
X014856Y017918D01*
X014856Y017708D01*
X014775Y017513D01*
X014626Y017364D01*
X014431Y017283D01*
X014220Y017283D01*
X014025Y017364D01*
X013876Y017513D01*
X013876Y017514D01*
X013876Y017419D01*
X013863Y017374D01*
X013840Y017332D01*
X013806Y017299D01*
X013765Y017275D01*
X013719Y017263D01*
X013346Y017263D01*
X013346Y017793D01*
X013306Y017793D01*
X013306Y017263D01*
X012932Y017263D01*
X012886Y017275D01*
X012845Y017299D01*
X012812Y017332D01*
X012788Y017374D01*
X012776Y017419D01*
X012776Y017793D01*
X013306Y017793D01*
X013306Y017833D01*
X012776Y017833D01*
X012776Y018207D01*
X012788Y018252D01*
X012812Y018294D01*
X012845Y018327D01*
X012886Y018351D01*
X012932Y018363D01*
X013027Y018363D01*
X013025Y018364D01*
X012876Y018513D01*
X012796Y018708D01*
X012796Y018918D01*
X012876Y019113D01*
X013025Y019262D01*
X013148Y019313D01*
X013025Y019364D01*
X012876Y019513D01*
X012796Y019708D01*
X012796Y019918D01*
X012876Y020113D01*
X013025Y020262D01*
X013148Y020313D01*
X013025Y020364D01*
X012876Y020513D01*
X012796Y020708D01*
X012796Y020918D01*
X012876Y021113D01*
X013025Y021262D01*
X013148Y021313D01*
X013025Y021364D01*
X012876Y021513D01*
X012796Y021708D01*
X012796Y021918D01*
X012876Y022113D01*
X013025Y022262D01*
X013148Y022313D01*
X013025Y022364D01*
X012876Y022513D01*
X012796Y022708D01*
X012796Y022918D01*
X012876Y023113D01*
X013025Y023262D01*
X013148Y023313D01*
X013025Y023364D01*
X012876Y023513D01*
X012796Y023708D01*
X012796Y023903D01*
X010313Y023903D01*
X008136Y021726D01*
X008136Y020426D01*
X008013Y020303D01*
X007633Y019923D01*
X008755Y019923D01*
X008833Y020001D01*
X008958Y020053D01*
X009093Y020053D01*
X009218Y020001D01*
X009314Y019906D01*
X009366Y019781D01*
X009366Y019645D01*
X009315Y019523D01*
X009755Y019523D01*
X009833Y019601D01*
X009958Y019653D01*
X010093Y019653D01*
X010218Y019601D01*
X010314Y019506D01*
X010366Y019381D01*
X010366Y019245D01*
X010314Y019120D01*
X010218Y019025D01*
X010093Y018973D01*
X009958Y018973D01*
X009833Y019025D01*
X009755Y019103D01*
X003539Y019103D01*
X001969Y020673D01*
X001858Y020673D01*
X001733Y020725D01*
X001637Y020820D01*
X001586Y020945D01*
X001586Y021081D01*
X001637Y021206D01*
X001716Y021284D01*
X001716Y030342D01*
X001637Y030420D01*
X001586Y030545D01*
X001586Y030681D01*
X001637Y030806D01*
X001733Y030901D01*
X001858Y030953D01*
X001993Y030953D01*
X002118Y030901D01*
X002214Y030806D01*
X002266Y030681D01*
X002266Y030545D01*
X002214Y030420D01*
X002136Y030342D01*
X002136Y021284D01*
X002214Y021206D01*
X002226Y021177D01*
X002237Y021206D01*
X002316Y021284D01*
X002316Y030742D01*
X002237Y030820D01*
X002186Y030945D01*
X002186Y031081D01*
X002237Y031206D01*
X002333Y031301D01*
X002458Y031353D01*
X002593Y031353D01*
X002718Y031301D01*
X002814Y031206D01*
X002866Y031081D01*
X002866Y030945D01*
X002814Y030820D01*
X002736Y030742D01*
X002736Y021284D01*
X002814Y021206D01*
X002866Y021081D01*
X002866Y020970D01*
X003913Y019923D01*
X006719Y019923D01*
X006716Y019926D01*
X006452Y020190D01*
X006445Y020183D01*
X006006Y020183D01*
X005740Y020449D01*
X005453Y020163D01*
X005246Y020163D01*
X005246Y020693D01*
X005206Y020693D01*
X005206Y020163D01*
X004998Y020163D01*
X004676Y020485D01*
X004676Y020693D01*
X005206Y020693D01*
X005206Y020733D01*
X004676Y020733D01*
X004676Y020941D01*
X004962Y021227D01*
X004696Y021493D01*
X004696Y021933D01*
X005006Y022243D01*
X005445Y022243D01*
X005726Y021963D01*
X006006Y022243D01*
X006445Y022243D01*
X006702Y021986D01*
X009616Y024900D01*
X009739Y025023D01*
X012339Y025023D01*
X012716Y025400D01*
X012716Y025400D01*
X012839Y025523D01*
X012856Y025523D01*
X012855Y025525D01*
X012816Y025602D01*
X012789Y025684D01*
X012776Y025770D01*
X012776Y025793D01*
X013306Y025793D01*
X013306Y025833D01*
X012776Y025833D01*
X012776Y025856D01*
X012789Y025942D01*
X012816Y026024D01*
X012855Y026101D01*
X012856Y026103D01*
X012513Y026103D01*
X012364Y025955D01*
X012414Y025906D01*
X012466Y025781D01*
X012466Y025645D01*
X012414Y025520D01*
X012318Y025425D01*
X012193Y025373D01*
X012058Y025373D01*
X011933Y025425D01*
X011837Y025520D01*
X011786Y025645D01*
X011786Y025781D01*
X011837Y025906D01*
X011916Y025984D01*
X011916Y026100D01*
X012039Y026223D01*
X012339Y026523D01*
X012872Y026523D01*
X012796Y026708D01*
X012796Y026918D01*
X012876Y027113D01*
X013025Y027262D01*
X013148Y027313D01*
X013025Y027364D01*
X012876Y027513D01*
X012796Y027708D01*
X012796Y027918D01*
X012876Y028113D01*
X013025Y028262D01*
X013148Y028313D01*
X013025Y028364D01*
X012876Y028513D01*
X012796Y028708D01*
X012796Y028918D01*
X012876Y029113D01*
X013025Y029262D01*
X013148Y029313D01*
X013025Y029364D01*
X012876Y029513D01*
X012796Y029708D01*
X012796Y029786D01*
X011036Y028026D01*
X011036Y027884D01*
X011114Y027806D01*
X011166Y027681D01*
X011166Y027545D01*
X011114Y027420D01*
X011018Y027325D01*
X010893Y027273D01*
X010758Y027273D01*
X010633Y027325D01*
X010537Y027420D01*
X010536Y027425D01*
X010536Y027100D01*
X010606Y027029D01*
X010730Y027081D01*
X010866Y027081D01*
X010991Y027029D01*
X011086Y026933D01*
X011138Y026808D01*
X011138Y026673D01*
X011086Y026548D01*
X010991Y026452D01*
X010866Y026401D01*
X010730Y026401D01*
X010605Y026452D01*
X010527Y026531D01*
X010511Y026531D01*
X010239Y026803D01*
X010116Y026926D01*
X010116Y028300D01*
X012839Y031023D01*
X012839Y031023D01*
X012876Y031113D01*
X013025Y031262D01*
X013120Y031301D01*
X013114Y031303D01*
X013037Y031343D01*
X012967Y031393D01*
X012906Y031455D01*
X012855Y031525D01*
X012816Y031602D01*
X012789Y031684D01*
X012776Y031770D01*
X012776Y031793D01*
X013306Y031793D01*
X013306Y031833D01*
X013306Y032363D01*
X013282Y032363D01*
X013197Y032349D01*
X013114Y032323D01*
X013037Y032283D01*
X012967Y032233D01*
X012906Y032171D01*
X012855Y032101D01*
X012816Y032024D01*
X012789Y031942D01*
X012776Y031856D01*
X012776Y031833D01*
X013306Y031833D01*
X013346Y031833D01*
X013346Y032363D01*
X013369Y032363D01*
X013454Y032349D01*
X013537Y032323D01*
X013614Y032283D01*
X013684Y032233D01*
X013745Y032171D01*
X013796Y032101D01*
X013835Y032024D01*
X013837Y032019D01*
X013876Y032113D01*
X013966Y032203D01*
X013966Y032664D01*
X012920Y033709D01*
X012866Y033841D01*
X012866Y034453D01*
X005975Y034453D01*
X005686Y034164D01*
X005686Y028370D01*
X005816Y028500D01*
X005939Y028623D01*
X006116Y028623D01*
X006116Y028900D01*
X006416Y029200D01*
X006539Y029323D01*
X006739Y029323D01*
X006816Y029400D01*
X006816Y029800D01*
X007016Y030000D01*
X007139Y030123D01*
X008355Y030123D01*
X008383Y030151D01*
X008508Y030203D01*
X008643Y030203D01*
X008768Y030151D01*
X008864Y030056D01*
X008916Y029931D01*
X008916Y029795D01*
X008864Y029670D01*
X008768Y029575D01*
X008643Y029523D01*
X008508Y029523D01*
X008383Y029575D01*
X008287Y029670D01*
X008274Y029703D01*
X007715Y029703D01*
X007766Y029581D01*
X007766Y029445D01*
X007714Y029320D01*
X007636Y029242D01*
X007636Y026100D01*
X007836Y025900D01*
X007836Y025026D01*
X007713Y024903D01*
X007213Y024403D01*
X006646Y024403D01*
X006568Y024325D01*
X006443Y024273D01*
X006366Y024273D01*
X006366Y024145D01*
X006314Y024020D01*
X006218Y023925D01*
X006093Y023873D01*
X005958Y023873D01*
X005833Y023925D01*
X005737Y024020D01*
X005686Y024145D01*
X005686Y024281D01*
X005737Y024406D01*
X005816Y024484D01*
X005816Y025000D01*
X006516Y025700D01*
X006516Y026766D01*
X006387Y026713D01*
X006244Y026713D01*
X006147Y026753D01*
X005754Y026753D01*
X005622Y026808D01*
X005520Y026909D01*
X005020Y027409D01*
X004966Y027541D01*
X004966Y034385D01*
X005020Y034517D01*
X005122Y034618D01*
X005122Y034618D01*
X005520Y035017D01*
X005536Y035033D01*
X001992Y035033D01*
X002156Y034868D01*
X002306Y034508D01*
X002306Y034118D01*
X002156Y033758D01*
X001881Y033482D01*
X001521Y033333D01*
X001131Y033333D01*
X000770Y033482D01*
X000606Y033647D01*
X000606Y018531D01*
X000658Y018553D01*
X000793Y018553D01*
X000918Y018501D01*
X000996Y018423D01*
X006355Y018423D01*
X006433Y018501D01*
X006558Y018553D01*
X006693Y018553D01*
X006818Y018501D01*
X006914Y018406D01*
X006966Y018281D01*
X006966Y018145D01*
X006914Y018020D01*
X006818Y017925D01*
X006790Y017913D01*
X006818Y017901D01*
X006914Y017806D01*
X006966Y017681D01*
X006966Y017545D01*
X006914Y017420D01*
X006818Y017325D01*
X006693Y017273D01*
X006558Y017273D01*
X006433Y017325D01*
X006355Y017403D01*
X000996Y017403D01*
X000918Y017325D01*
X000793Y017273D01*
X000658Y017273D01*
X000606Y017295D01*
X000606Y013779D01*
X000770Y013944D01*
X001131Y014093D01*
X001521Y014093D01*
X001881Y013944D01*
X002156Y013668D01*
X002306Y013308D01*
X002306Y012918D01*
X002156Y012558D01*
X002146Y012547D02*
X005087Y012547D01*
X004953Y012705D02*
X002218Y012705D01*
X002283Y012864D02*
X004887Y012864D01*
X004849Y013022D02*
X002306Y013022D01*
X002306Y013181D02*
X004849Y013181D01*
X004878Y013339D02*
X002293Y013339D01*
X002227Y013498D02*
X004943Y013498D01*
X005064Y013656D02*
X002161Y013656D01*
X002010Y013815D02*
X005265Y013815D01*
X006020Y013815D02*
X006054Y013815D01*
X006004Y013973D02*
X001809Y013973D01*
X000842Y013973D02*
X000606Y013973D01*
X000606Y013815D02*
X000642Y013815D01*
X000606Y014132D02*
X006003Y014132D01*
X006049Y014290D02*
X000606Y014290D01*
X000606Y014449D02*
X006161Y014449D01*
X006502Y014607D02*
X000606Y014607D01*
X000606Y014766D02*
X015246Y014766D01*
X015246Y014924D02*
X000606Y014924D01*
X000606Y015083D02*
X015246Y015083D01*
X015246Y015241D02*
X000606Y015241D01*
X000606Y015400D02*
X015246Y015400D01*
X015246Y015558D02*
X000606Y015558D01*
X000606Y015717D02*
X015246Y015717D01*
X015246Y015875D02*
X000606Y015875D01*
X000606Y016034D02*
X015246Y016034D01*
X015246Y016192D02*
X000606Y016192D01*
X000606Y016351D02*
X015246Y016351D01*
X015246Y016509D02*
X000606Y016509D01*
X000606Y016668D02*
X015246Y016668D01*
X015246Y016826D02*
X000606Y016826D01*
X000606Y016985D02*
X015246Y016985D01*
X015246Y017144D02*
X000606Y017144D01*
X000863Y017302D02*
X006488Y017302D01*
X006763Y017302D02*
X012842Y017302D01*
X012776Y017461D02*
X006930Y017461D01*
X006966Y017619D02*
X012776Y017619D01*
X012776Y017778D02*
X006925Y017778D01*
X006829Y017936D02*
X012776Y017936D01*
X012776Y018095D02*
X006945Y018095D01*
X006966Y018253D02*
X012788Y018253D01*
X012978Y018412D02*
X006908Y018412D01*
X006645Y019997D02*
X003839Y019997D01*
X003681Y020155D02*
X006487Y020155D01*
X005876Y020314D02*
X005604Y020314D01*
X005246Y020314D02*
X005206Y020314D01*
X005206Y020472D02*
X005246Y020472D01*
X005246Y020631D02*
X005206Y020631D01*
X004847Y020314D02*
X003522Y020314D01*
X003364Y020472D02*
X004689Y020472D01*
X004676Y020631D02*
X003205Y020631D01*
X003047Y020789D02*
X004676Y020789D01*
X004682Y020948D02*
X002888Y020948D01*
X002855Y021106D02*
X004841Y021106D01*
X004925Y021265D02*
X002755Y021265D01*
X002736Y021423D02*
X004766Y021423D01*
X004696Y021582D02*
X002736Y021582D01*
X002736Y021740D02*
X004696Y021740D01*
X004696Y021899D02*
X002736Y021899D01*
X002736Y022057D02*
X004820Y022057D01*
X004979Y022216D02*
X002736Y022216D01*
X002736Y022374D02*
X007090Y022374D01*
X007248Y022533D02*
X002736Y022533D01*
X002736Y022691D02*
X007407Y022691D01*
X007565Y022850D02*
X002736Y022850D01*
X002736Y023008D02*
X003626Y023008D01*
X003668Y022967D02*
X003835Y022897D01*
X004016Y022897D01*
X004183Y022967D01*
X004311Y023095D01*
X004381Y023262D01*
X004381Y023443D01*
X004311Y023610D01*
X004183Y023738D01*
X004016Y023807D01*
X003835Y023807D01*
X003668Y023738D01*
X003540Y023610D01*
X003471Y023443D01*
X003471Y023262D01*
X003540Y023095D01*
X003668Y022967D01*
X003510Y023167D02*
X002736Y023167D01*
X002736Y023325D02*
X003471Y023325D01*
X003487Y023484D02*
X002736Y023484D01*
X002736Y023642D02*
X003572Y023642D01*
X003819Y023801D02*
X002736Y023801D01*
X002736Y023959D02*
X005799Y023959D01*
X005697Y024118D02*
X002736Y024118D01*
X002736Y024276D02*
X005686Y024276D01*
X005766Y024435D02*
X002736Y024435D01*
X002736Y024593D02*
X005816Y024593D01*
X005816Y024752D02*
X002736Y024752D01*
X002736Y024910D02*
X003646Y024910D01*
X003668Y024888D02*
X003835Y024819D01*
X004016Y024819D01*
X004183Y024888D01*
X004311Y025016D01*
X004381Y025183D01*
X004381Y025364D01*
X004311Y025531D01*
X004183Y025659D01*
X004016Y025729D01*
X003835Y025729D01*
X003668Y025659D01*
X003540Y025531D01*
X003471Y025364D01*
X003471Y025183D01*
X003540Y025016D01*
X003668Y024888D01*
X003518Y025069D02*
X002736Y025069D01*
X002736Y025227D02*
X003471Y025227D01*
X003479Y025386D02*
X002736Y025386D01*
X002736Y025544D02*
X003553Y025544D01*
X003772Y025703D02*
X002736Y025703D01*
X002736Y025861D02*
X006516Y025861D01*
X006516Y025703D02*
X004079Y025703D01*
X004299Y025544D02*
X006360Y025544D01*
X006201Y025386D02*
X004372Y025386D01*
X004381Y025227D02*
X006043Y025227D01*
X005884Y025069D02*
X004333Y025069D01*
X004205Y024910D02*
X005816Y024910D01*
X006451Y024276D02*
X008992Y024276D01*
X009150Y024435D02*
X007244Y024435D01*
X007403Y024593D02*
X009309Y024593D01*
X009467Y024752D02*
X007561Y024752D01*
X007720Y024910D02*
X009626Y024910D01*
X010210Y023801D02*
X012796Y023801D01*
X012823Y023642D02*
X010052Y023642D01*
X009893Y023484D02*
X012906Y023484D01*
X013119Y023325D02*
X009735Y023325D01*
X009576Y023167D02*
X012930Y023167D01*
X012833Y023008D02*
X009418Y023008D01*
X009259Y022850D02*
X012796Y022850D01*
X012802Y022691D02*
X009101Y022691D01*
X008942Y022533D02*
X012868Y022533D01*
X013015Y022374D02*
X008784Y022374D01*
X008625Y022216D02*
X012979Y022216D01*
X012853Y022057D02*
X008467Y022057D01*
X008308Y021899D02*
X012796Y021899D01*
X012796Y021740D02*
X008150Y021740D01*
X008136Y021582D02*
X012848Y021582D01*
X012966Y021423D02*
X008136Y021423D01*
X008136Y021265D02*
X013031Y021265D01*
X012873Y021106D02*
X008136Y021106D01*
X008136Y020948D02*
X012808Y020948D01*
X012796Y020789D02*
X008136Y020789D01*
X008136Y020631D02*
X012828Y020631D01*
X012917Y020472D02*
X008136Y020472D01*
X008023Y020314D02*
X013147Y020314D01*
X012918Y020155D02*
X007865Y020155D01*
X007706Y019997D02*
X008828Y019997D01*
X009223Y019997D02*
X012828Y019997D01*
X012796Y019838D02*
X009342Y019838D01*
X009366Y019680D02*
X012807Y019680D01*
X012873Y019521D02*
X010298Y019521D01*
X010366Y019363D02*
X013028Y019363D01*
X012967Y019204D02*
X010348Y019204D01*
X010239Y019046D02*
X012848Y019046D01*
X012796Y018887D02*
X000606Y018887D01*
X000606Y018729D02*
X012796Y018729D01*
X012853Y018570D02*
X000606Y018570D01*
X000606Y019046D02*
X009812Y019046D01*
X007724Y023008D02*
X004225Y023008D01*
X004341Y023167D02*
X007882Y023167D01*
X008041Y023325D02*
X004381Y023325D01*
X004364Y023484D02*
X008199Y023484D01*
X008358Y023642D02*
X004279Y023642D01*
X004033Y023801D02*
X008516Y023801D01*
X008675Y023959D02*
X006252Y023959D01*
X006354Y024118D02*
X008833Y024118D01*
X007836Y025069D02*
X012384Y025069D01*
X012543Y025227D02*
X007836Y025227D01*
X007836Y025386D02*
X012028Y025386D01*
X012223Y025386D02*
X012701Y025386D01*
X012845Y025544D02*
X012424Y025544D01*
X012466Y025703D02*
X012786Y025703D01*
X012776Y025861D02*
X012432Y025861D01*
X012429Y026020D02*
X012814Y026020D01*
X012818Y026654D02*
X011130Y026654D01*
X011136Y026812D02*
X012796Y026812D01*
X012817Y026971D02*
X011049Y026971D01*
X010928Y027288D02*
X013086Y027288D01*
X012943Y027446D02*
X011124Y027446D01*
X011166Y027605D02*
X012838Y027605D01*
X012796Y027763D02*
X011131Y027763D01*
X011036Y027922D02*
X012797Y027922D01*
X012863Y028080D02*
X011090Y028080D01*
X011248Y028239D02*
X013002Y028239D01*
X012992Y028397D02*
X011407Y028397D01*
X011565Y028556D02*
X012859Y028556D01*
X012796Y028714D02*
X011724Y028714D01*
X011882Y028873D02*
X012796Y028873D01*
X012842Y029031D02*
X012041Y029031D01*
X012199Y029190D02*
X012953Y029190D01*
X013063Y029348D02*
X012358Y029348D01*
X012516Y029507D02*
X012883Y029507D01*
X012813Y029665D02*
X012675Y029665D01*
X012273Y030458D02*
X005686Y030458D01*
X005686Y030616D02*
X012432Y030616D01*
X012590Y030775D02*
X005686Y030775D01*
X005686Y030933D02*
X012749Y030933D01*
X012867Y031092D02*
X005686Y031092D01*
X005686Y031250D02*
X013013Y031250D01*
X012952Y031409D02*
X005686Y031409D01*
X005686Y031567D02*
X012834Y031567D01*
X012783Y031726D02*
X005686Y031726D01*
X005686Y031884D02*
X012780Y031884D01*
X012825Y032043D02*
X005686Y032043D01*
X005686Y032201D02*
X012936Y032201D01*
X013260Y032360D02*
X005686Y032360D01*
X005686Y032518D02*
X013966Y032518D01*
X013966Y032360D02*
X013391Y032360D01*
X013346Y032360D02*
X013306Y032360D01*
X013306Y032201D02*
X013346Y032201D01*
X013346Y032043D02*
X013306Y032043D01*
X013306Y031884D02*
X013346Y031884D01*
X013715Y032201D02*
X013964Y032201D01*
X013847Y032043D02*
X013826Y032043D01*
X013953Y032677D02*
X005686Y032677D01*
X005686Y032835D02*
X013794Y032835D01*
X013636Y032994D02*
X005686Y032994D01*
X005686Y033152D02*
X013477Y033152D01*
X013319Y033311D02*
X005686Y033311D01*
X005686Y033469D02*
X013160Y033469D01*
X013002Y033628D02*
X005686Y033628D01*
X005686Y033786D02*
X012889Y033786D01*
X012866Y033945D02*
X005686Y033945D01*
X005686Y034103D02*
X012866Y034103D01*
X012866Y034262D02*
X005783Y034262D01*
X005942Y034420D02*
X012866Y034420D01*
X014337Y033311D02*
X015246Y033311D01*
X015246Y033469D02*
X015049Y033469D01*
X015226Y033628D02*
X015246Y033628D01*
X015246Y033152D02*
X014496Y033152D01*
X014640Y032994D02*
X015246Y032994D01*
X015246Y032835D02*
X014686Y032835D01*
X014686Y032677D02*
X015246Y032677D01*
X015246Y032518D02*
X014686Y032518D01*
X014686Y032360D02*
X015246Y032360D01*
X015246Y032201D02*
X014687Y032201D01*
X014804Y032043D02*
X015246Y032043D01*
X015246Y031884D02*
X014856Y031884D01*
X014856Y031726D02*
X015246Y031726D01*
X015246Y031567D02*
X014797Y031567D01*
X014671Y031409D02*
X015246Y031409D01*
X015246Y031250D02*
X014638Y031250D01*
X014784Y031092D02*
X015246Y031092D01*
X015246Y030933D02*
X014850Y030933D01*
X014856Y030775D02*
X015246Y030775D01*
X015246Y030616D02*
X014818Y030616D01*
X014720Y030458D02*
X015246Y030458D01*
X015246Y030299D02*
X014537Y030299D01*
X014748Y030141D02*
X015246Y030141D01*
X015246Y029982D02*
X014829Y029982D01*
X014856Y029824D02*
X015246Y029824D01*
X015246Y029665D02*
X014838Y029665D01*
X014769Y029507D02*
X015246Y029507D01*
X015246Y029348D02*
X014588Y029348D01*
X014699Y029190D02*
X015246Y029190D01*
X015246Y029031D02*
X014809Y029031D01*
X014856Y028873D02*
X015246Y028873D01*
X015246Y028714D02*
X014856Y028714D01*
X014793Y028556D02*
X015246Y028556D01*
X015246Y028397D02*
X014659Y028397D01*
X014650Y028239D02*
X015246Y028239D01*
X015246Y028080D02*
X014789Y028080D01*
X014854Y027922D02*
X015246Y027922D01*
X015246Y027763D02*
X014856Y027763D01*
X014813Y027605D02*
X015246Y027605D01*
X015246Y027446D02*
X014708Y027446D01*
X014565Y027288D02*
X015246Y027288D01*
X015246Y027129D02*
X014759Y027129D01*
X014834Y026971D02*
X015246Y026971D01*
X015246Y026812D02*
X014856Y026812D01*
X014833Y026654D02*
X015246Y026654D01*
X015246Y026495D02*
X014757Y026495D01*
X014560Y026337D02*
X015246Y026337D01*
X015246Y026178D02*
X014710Y026178D01*
X014814Y026020D02*
X015246Y026020D01*
X015246Y025861D02*
X014856Y025861D01*
X014853Y025703D02*
X015246Y025703D01*
X015246Y025544D02*
X014788Y025544D01*
X014648Y025386D02*
X015246Y025386D01*
X015246Y025227D02*
X014661Y025227D01*
X014793Y025069D02*
X015246Y025069D01*
X015246Y024910D02*
X014856Y024910D01*
X014856Y024752D02*
X015246Y024752D01*
X015246Y024593D02*
X014808Y024593D01*
X014697Y024435D02*
X015246Y024435D01*
X015246Y024276D02*
X014593Y024276D01*
X014771Y024118D02*
X015246Y024118D01*
X015246Y023959D02*
X014839Y023959D01*
X014856Y023801D02*
X015246Y023801D01*
X015246Y023642D02*
X014828Y023642D01*
X014746Y023484D02*
X015246Y023484D01*
X015246Y023325D02*
X014532Y023325D01*
X014722Y023167D02*
X015246Y023167D01*
X015246Y023008D02*
X014818Y023008D01*
X014856Y022850D02*
X015246Y022850D01*
X015246Y022691D02*
X014849Y022691D01*
X014783Y022533D02*
X015246Y022533D01*
X015246Y022374D02*
X014636Y022374D01*
X014673Y022216D02*
X015246Y022216D01*
X015246Y022057D02*
X014798Y022057D01*
X014856Y021899D02*
X015246Y021899D01*
X015246Y021740D02*
X014856Y021740D01*
X014803Y021582D02*
X015246Y021582D01*
X015246Y021423D02*
X014685Y021423D01*
X014620Y021265D02*
X015246Y021265D01*
X015246Y021106D02*
X014778Y021106D01*
X014844Y020948D02*
X015246Y020948D01*
X015246Y020789D02*
X014856Y020789D01*
X014824Y020631D02*
X015246Y020631D01*
X015246Y020472D02*
X014734Y020472D01*
X014505Y020314D02*
X015246Y020314D01*
X015246Y020155D02*
X014733Y020155D01*
X014823Y019997D02*
X015246Y019997D01*
X015246Y019838D02*
X014856Y019838D01*
X014844Y019680D02*
X015246Y019680D01*
X015246Y019521D02*
X014778Y019521D01*
X014623Y019363D02*
X015246Y019363D01*
X015246Y019204D02*
X014684Y019204D01*
X014803Y019046D02*
X015246Y019046D01*
X015246Y018887D02*
X014856Y018887D01*
X014856Y018729D02*
X015246Y018729D01*
X015246Y018570D02*
X014799Y018570D01*
X014674Y018412D02*
X015246Y018412D01*
X015246Y018253D02*
X014635Y018253D01*
X014783Y018095D02*
X015246Y018095D01*
X015246Y017936D02*
X014848Y017936D01*
X014856Y017778D02*
X015246Y017778D01*
X015246Y017619D02*
X014819Y017619D01*
X014723Y017461D02*
X015246Y017461D01*
X015246Y017302D02*
X014477Y017302D01*
X014174Y017302D02*
X013809Y017302D01*
X013876Y017461D02*
X013929Y017461D01*
X013346Y017461D02*
X013306Y017461D01*
X013306Y017619D02*
X013346Y017619D01*
X013346Y017778D02*
X013306Y017778D01*
X013306Y017302D02*
X013346Y017302D01*
X014042Y013973D02*
X011057Y013973D01*
X011086Y014132D02*
X015246Y014132D01*
X015246Y014290D02*
X011042Y014290D01*
X010855Y014449D02*
X015246Y014449D01*
X015246Y014607D02*
X006593Y014607D01*
X006558Y014607D02*
X006538Y014607D01*
X006538Y014449D02*
X006558Y014449D01*
X006558Y014290D02*
X006538Y014290D01*
X006538Y014132D02*
X006558Y014132D01*
X006934Y014449D02*
X007123Y014449D01*
X007840Y014449D02*
X008011Y014449D01*
X008728Y014449D02*
X008945Y014449D01*
X009662Y014449D02*
X010096Y014449D01*
X009909Y014290D02*
X009781Y014290D01*
X009834Y014132D02*
X009866Y014132D01*
X009894Y013973D02*
X009834Y013973D01*
X009831Y013815D02*
X009777Y013815D01*
X010355Y014449D02*
X010596Y014449D01*
X010937Y013815D02*
X013842Y013815D01*
X013690Y013656D02*
X010787Y013656D01*
X010908Y013498D02*
X013624Y013498D01*
X013559Y013339D02*
X010974Y013339D01*
X011002Y013181D02*
X013546Y013181D01*
X013546Y013022D02*
X011002Y013022D01*
X010964Y012864D02*
X013568Y012864D01*
X013634Y012705D02*
X010899Y012705D01*
X010765Y012547D02*
X013706Y012547D01*
X015009Y013973D02*
X015246Y013973D01*
X015246Y013815D02*
X015210Y013815D01*
X011828Y025544D02*
X007836Y025544D01*
X007836Y025703D02*
X011786Y025703D01*
X011819Y025861D02*
X007836Y025861D01*
X007716Y026020D02*
X011916Y026020D01*
X011994Y026178D02*
X007636Y026178D01*
X007636Y026337D02*
X012152Y026337D01*
X012311Y026495D02*
X011033Y026495D01*
X010563Y026495D02*
X007636Y026495D01*
X007636Y026654D02*
X010388Y026654D01*
X010230Y026812D02*
X007636Y026812D01*
X007636Y026971D02*
X010116Y026971D01*
X010116Y027129D02*
X007636Y027129D01*
X007636Y027288D02*
X010116Y027288D01*
X010116Y027446D02*
X007636Y027446D01*
X007636Y027605D02*
X010116Y027605D01*
X010116Y027763D02*
X007636Y027763D01*
X007636Y027922D02*
X010116Y027922D01*
X010116Y028080D02*
X007636Y028080D01*
X007636Y028239D02*
X010116Y028239D01*
X010213Y028397D02*
X007636Y028397D01*
X007636Y028556D02*
X010371Y028556D01*
X010530Y028714D02*
X007636Y028714D01*
X007636Y028873D02*
X010688Y028873D01*
X010847Y029031D02*
X007636Y029031D01*
X007636Y029190D02*
X011005Y029190D01*
X011164Y029348D02*
X007725Y029348D01*
X007766Y029507D02*
X011322Y029507D01*
X011481Y029665D02*
X008858Y029665D01*
X008916Y029824D02*
X011639Y029824D01*
X011798Y029982D02*
X008894Y029982D01*
X008779Y030141D02*
X011956Y030141D01*
X012115Y030299D02*
X005686Y030299D01*
X005686Y030141D02*
X008372Y030141D01*
X008293Y029665D02*
X007731Y029665D01*
X006998Y029982D02*
X005686Y029982D01*
X005686Y029824D02*
X006839Y029824D01*
X006816Y029665D02*
X005686Y029665D01*
X005686Y029507D02*
X006816Y029507D01*
X006764Y029348D02*
X005686Y029348D01*
X005686Y029190D02*
X006405Y029190D01*
X006247Y029031D02*
X005686Y029031D01*
X005686Y028873D02*
X006116Y028873D01*
X006116Y028714D02*
X005686Y028714D01*
X005686Y028556D02*
X005871Y028556D01*
X005713Y028397D02*
X005686Y028397D01*
X004966Y028397D02*
X002736Y028397D01*
X002736Y028239D02*
X004966Y028239D01*
X004966Y028080D02*
X002736Y028080D01*
X002736Y027922D02*
X004966Y027922D01*
X004966Y027763D02*
X002736Y027763D01*
X002736Y027605D02*
X004966Y027605D01*
X005005Y027446D02*
X002736Y027446D01*
X002736Y027288D02*
X005142Y027288D01*
X005300Y027129D02*
X002736Y027129D01*
X002736Y026971D02*
X005459Y026971D01*
X005617Y026812D02*
X002736Y026812D01*
X002736Y026654D02*
X006516Y026654D01*
X006516Y026495D02*
X002736Y026495D01*
X002736Y026337D02*
X006516Y026337D01*
X006516Y026178D02*
X002736Y026178D01*
X002736Y026020D02*
X006516Y026020D01*
X004966Y028556D02*
X002736Y028556D01*
X002736Y028714D02*
X004966Y028714D01*
X004966Y028873D02*
X002736Y028873D01*
X002736Y029031D02*
X004966Y029031D01*
X004966Y029190D02*
X002736Y029190D01*
X002736Y029348D02*
X004966Y029348D01*
X004966Y029507D02*
X002736Y029507D01*
X002736Y029665D02*
X004966Y029665D01*
X004966Y029824D02*
X002736Y029824D01*
X002736Y029982D02*
X004966Y029982D01*
X004966Y030141D02*
X002736Y030141D01*
X002736Y030299D02*
X004966Y030299D01*
X004966Y030458D02*
X002736Y030458D01*
X002736Y030616D02*
X004966Y030616D01*
X004966Y030775D02*
X002768Y030775D01*
X002860Y030933D02*
X004966Y030933D01*
X004966Y031092D02*
X002861Y031092D01*
X002769Y031250D02*
X004966Y031250D01*
X004966Y031409D02*
X000606Y031409D01*
X000606Y031567D02*
X004966Y031567D01*
X004966Y031726D02*
X000606Y031726D01*
X000606Y031884D02*
X004966Y031884D01*
X004966Y032043D02*
X000606Y032043D01*
X000606Y032201D02*
X004966Y032201D01*
X004966Y032360D02*
X000606Y032360D01*
X000606Y032518D02*
X004966Y032518D01*
X004966Y032677D02*
X000606Y032677D01*
X000606Y032835D02*
X004966Y032835D01*
X004966Y032994D02*
X000606Y032994D01*
X000606Y033152D02*
X004966Y033152D01*
X004966Y033311D02*
X000606Y033311D01*
X000606Y033469D02*
X000802Y033469D01*
X000625Y033628D02*
X000606Y033628D01*
X001849Y033469D02*
X004966Y033469D01*
X004966Y033628D02*
X002026Y033628D01*
X002168Y033786D02*
X004966Y033786D01*
X004966Y033945D02*
X002234Y033945D01*
X002299Y034103D02*
X004966Y034103D01*
X004966Y034262D02*
X002306Y034262D01*
X002306Y034420D02*
X004980Y034420D01*
X005082Y034579D02*
X002276Y034579D01*
X002211Y034737D02*
X005241Y034737D01*
X005399Y034896D02*
X002129Y034896D01*
X002282Y031250D02*
X000606Y031250D01*
X000606Y031092D02*
X002190Y031092D01*
X002191Y030933D02*
X002041Y030933D01*
X001810Y030933D02*
X000606Y030933D01*
X000606Y030775D02*
X001624Y030775D01*
X001586Y030616D02*
X000606Y030616D01*
X000606Y030458D02*
X001622Y030458D01*
X001716Y030299D02*
X000606Y030299D01*
X000606Y030141D02*
X001716Y030141D01*
X001716Y029982D02*
X000606Y029982D01*
X000606Y029824D02*
X001716Y029824D01*
X001716Y029665D02*
X000606Y029665D01*
X000606Y029507D02*
X001716Y029507D01*
X001716Y029348D02*
X000606Y029348D01*
X000606Y029190D02*
X001716Y029190D01*
X001716Y029031D02*
X000606Y029031D01*
X000606Y028873D02*
X001716Y028873D01*
X001716Y028714D02*
X000606Y028714D01*
X000606Y028556D02*
X001716Y028556D01*
X001716Y028397D02*
X000606Y028397D01*
X000606Y028239D02*
X001716Y028239D01*
X001716Y028080D02*
X000606Y028080D01*
X000606Y027922D02*
X001716Y027922D01*
X001716Y027763D02*
X000606Y027763D01*
X000606Y027605D02*
X001716Y027605D01*
X001716Y027446D02*
X000606Y027446D01*
X000606Y027288D02*
X001716Y027288D01*
X001716Y027129D02*
X000606Y027129D01*
X000606Y026971D02*
X001716Y026971D01*
X001716Y026812D02*
X000606Y026812D01*
X000606Y026654D02*
X001716Y026654D01*
X001716Y026495D02*
X000606Y026495D01*
X000606Y026337D02*
X001716Y026337D01*
X001716Y026178D02*
X000606Y026178D01*
X000606Y026020D02*
X001716Y026020D01*
X001716Y025861D02*
X000606Y025861D01*
X000606Y025703D02*
X001716Y025703D01*
X001716Y025544D02*
X000606Y025544D01*
X000606Y025386D02*
X001716Y025386D01*
X001716Y025227D02*
X000606Y025227D01*
X000606Y025069D02*
X001716Y025069D01*
X001716Y024910D02*
X000606Y024910D01*
X000606Y024752D02*
X001716Y024752D01*
X001716Y024593D02*
X000606Y024593D01*
X000606Y024435D02*
X001716Y024435D01*
X001716Y024276D02*
X000606Y024276D01*
X000606Y024118D02*
X001716Y024118D01*
X001716Y023959D02*
X000606Y023959D01*
X000606Y023801D02*
X001716Y023801D01*
X001716Y023642D02*
X000606Y023642D01*
X000606Y023484D02*
X001716Y023484D01*
X001716Y023325D02*
X000606Y023325D01*
X000606Y023167D02*
X001716Y023167D01*
X001716Y023008D02*
X000606Y023008D01*
X000606Y022850D02*
X001716Y022850D01*
X001716Y022691D02*
X000606Y022691D01*
X000606Y022533D02*
X001716Y022533D01*
X001716Y022374D02*
X000606Y022374D01*
X000606Y022216D02*
X001716Y022216D01*
X001716Y022057D02*
X000606Y022057D01*
X000606Y021899D02*
X001716Y021899D01*
X001716Y021740D02*
X000606Y021740D01*
X000606Y021582D02*
X001716Y021582D01*
X001716Y021423D02*
X000606Y021423D01*
X000606Y021265D02*
X001696Y021265D01*
X001596Y021106D02*
X000606Y021106D01*
X000606Y020948D02*
X001586Y020948D01*
X001669Y020789D02*
X000606Y020789D01*
X000606Y020631D02*
X002011Y020631D01*
X002170Y020472D02*
X000606Y020472D01*
X000606Y020314D02*
X002328Y020314D01*
X002487Y020155D02*
X000606Y020155D01*
X000606Y019997D02*
X002645Y019997D01*
X002804Y019838D02*
X000606Y019838D01*
X000606Y019680D02*
X002962Y019680D01*
X003121Y019521D02*
X000606Y019521D01*
X000606Y019363D02*
X003279Y019363D01*
X003438Y019204D02*
X000606Y019204D01*
X002155Y021265D02*
X002296Y021265D01*
X002316Y021423D02*
X002136Y021423D01*
X002136Y021582D02*
X002316Y021582D01*
X002316Y021740D02*
X002136Y021740D01*
X002136Y021899D02*
X002316Y021899D01*
X002316Y022057D02*
X002136Y022057D01*
X002136Y022216D02*
X002316Y022216D01*
X002316Y022374D02*
X002136Y022374D01*
X002136Y022533D02*
X002316Y022533D01*
X002316Y022691D02*
X002136Y022691D01*
X002136Y022850D02*
X002316Y022850D01*
X002316Y023008D02*
X002136Y023008D01*
X002136Y023167D02*
X002316Y023167D01*
X002316Y023325D02*
X002136Y023325D01*
X002136Y023484D02*
X002316Y023484D01*
X002316Y023642D02*
X002136Y023642D01*
X002136Y023801D02*
X002316Y023801D01*
X002316Y023959D02*
X002136Y023959D01*
X002136Y024118D02*
X002316Y024118D01*
X002316Y024276D02*
X002136Y024276D01*
X002136Y024435D02*
X002316Y024435D01*
X002316Y024593D02*
X002136Y024593D01*
X002136Y024752D02*
X002316Y024752D01*
X002316Y024910D02*
X002136Y024910D01*
X002136Y025069D02*
X002316Y025069D01*
X002316Y025227D02*
X002136Y025227D01*
X002136Y025386D02*
X002316Y025386D01*
X002316Y025544D02*
X002136Y025544D01*
X002136Y025703D02*
X002316Y025703D01*
X002316Y025861D02*
X002136Y025861D01*
X002136Y026020D02*
X002316Y026020D01*
X002316Y026178D02*
X002136Y026178D01*
X002136Y026337D02*
X002316Y026337D01*
X002316Y026495D02*
X002136Y026495D01*
X002136Y026654D02*
X002316Y026654D01*
X002316Y026812D02*
X002136Y026812D01*
X002136Y026971D02*
X002316Y026971D01*
X002316Y027129D02*
X002136Y027129D01*
X002136Y027288D02*
X002316Y027288D01*
X002316Y027446D02*
X002136Y027446D01*
X002136Y027605D02*
X002316Y027605D01*
X002316Y027763D02*
X002136Y027763D01*
X002136Y027922D02*
X002316Y027922D01*
X002316Y028080D02*
X002136Y028080D01*
X002136Y028239D02*
X002316Y028239D01*
X002316Y028397D02*
X002136Y028397D01*
X002136Y028556D02*
X002316Y028556D01*
X002316Y028714D02*
X002136Y028714D01*
X002136Y028873D02*
X002316Y028873D01*
X002316Y029031D02*
X002136Y029031D01*
X002136Y029190D02*
X002316Y029190D01*
X002316Y029348D02*
X002136Y029348D01*
X002136Y029507D02*
X002316Y029507D01*
X002316Y029665D02*
X002136Y029665D01*
X002136Y029824D02*
X002316Y029824D01*
X002316Y029982D02*
X002136Y029982D01*
X002136Y030141D02*
X002316Y030141D01*
X002316Y030299D02*
X002136Y030299D01*
X002229Y030458D02*
X002316Y030458D01*
X002316Y030616D02*
X002266Y030616D01*
X002283Y030775D02*
X002227Y030775D01*
X005473Y022216D02*
X005979Y022216D01*
X005820Y022057D02*
X005631Y022057D01*
X006473Y022216D02*
X006931Y022216D01*
X006773Y022057D02*
X006631Y022057D01*
X010536Y027129D02*
X012892Y027129D01*
X010723Y027288D02*
X010536Y027288D01*
D16*
X010826Y027613D03*
X010798Y026741D03*
X012126Y025713D03*
X012626Y027613D03*
X008576Y029863D03*
X007426Y029513D03*
X006726Y028713D03*
X006226Y028013D03*
X006316Y027073D03*
X007026Y025413D03*
X006696Y025013D03*
X006376Y024613D03*
X006026Y024213D03*
X009026Y019713D03*
X010026Y019313D03*
X009126Y016913D03*
X008726Y016213D03*
X008126Y015613D03*
X007726Y016213D03*
X007726Y016913D03*
X006626Y017613D03*
X006626Y018213D03*
X009526Y016313D03*
X002526Y021013D03*
X001926Y021013D03*
X002126Y019213D03*
X000726Y018213D03*
X000726Y017613D03*
X001926Y030613D03*
X002526Y031013D03*
D17*
X002526Y021013D01*
X003826Y019713D01*
X009026Y019713D01*
X010026Y019313D02*
X003626Y019313D01*
X001926Y021013D01*
X001926Y030613D01*
X005826Y028213D02*
X005826Y027813D01*
X006126Y027513D01*
X006526Y027513D01*
X006726Y027313D01*
X006726Y025613D01*
X006026Y024913D01*
X006026Y024213D01*
X006376Y024613D02*
X007126Y024613D01*
X007626Y025113D01*
X007626Y025813D01*
X007426Y026013D01*
X007426Y029513D01*
X007226Y029913D02*
X008526Y029913D01*
X008576Y029863D01*
X007226Y029913D02*
X007026Y029713D01*
X007026Y029313D01*
X006826Y029113D01*
X006626Y029113D01*
X006326Y028813D01*
X006326Y028513D01*
X006226Y028413D01*
X006026Y028413D01*
X005826Y028213D01*
X006226Y028013D02*
X006238Y028000D01*
X006836Y028000D01*
X007026Y027810D01*
X007026Y025413D01*
X007226Y025013D02*
X007426Y025213D01*
X007426Y025713D01*
X007226Y025913D01*
X007226Y028313D01*
X006726Y028713D01*
X006696Y025013D02*
X007226Y025013D01*
X010226Y024113D02*
X007926Y021813D01*
X007926Y020513D01*
X007426Y020013D01*
X006926Y020013D01*
X006226Y020713D01*
X006226Y021713D02*
X006726Y021713D01*
X009826Y024813D01*
X012426Y024813D01*
X012926Y025313D01*
X013826Y025313D01*
X014326Y024813D01*
X014326Y025713D02*
X014326Y025813D01*
X013826Y026313D01*
X012426Y026313D01*
X012126Y026013D01*
X012126Y025713D01*
X013026Y024813D02*
X012726Y024513D01*
X010026Y024513D01*
X007226Y021713D01*
X006626Y018213D02*
X000726Y018213D01*
X000726Y017613D02*
X006626Y017613D01*
X010226Y024113D02*
X012738Y024113D01*
X012926Y024300D01*
X013838Y024300D01*
X014326Y023813D01*
X013326Y024813D02*
X013026Y024813D01*
X010798Y026741D02*
X010598Y026741D01*
X010326Y027013D01*
X010326Y028213D01*
X012926Y030813D01*
X013326Y030813D01*
X013026Y030313D02*
X010826Y028113D01*
X010826Y027613D01*
X013026Y030313D02*
X013826Y030313D01*
X014326Y030813D01*
D18*
X010726Y014113D03*
X010226Y014113D03*
X005326Y032313D03*
D19*
X005326Y034313D01*
X005826Y034813D01*
X013226Y034813D01*
X013226Y033913D01*
X014326Y032813D01*
X014326Y031813D01*
X013326Y034713D02*
X013226Y034813D01*
X006276Y027113D02*
X006316Y027073D01*
X006276Y027113D02*
X005826Y027113D01*
X005326Y027613D01*
X005326Y032313D01*
M02*
