%
M48
M72
T01C0.0200
T02C0.0240
T03C0.0354
T04C0.0360
T05C0.0400
T06C0.0433
T07C0.0866
T08C0.1000
%
T01
X8126Y15613
X7726Y16213
X7726Y16913
X8726Y16213
X9126Y16913
X9526Y16313
X10026Y19313
X9026Y19713
X6626Y18213
X6626Y17613
X6026Y24213
X6376Y24613
X6696Y25013
X7026Y25413
X6316Y27073
X6226Y28013
X6726Y28713
X7426Y29513
X8576Y29863
X10826Y27613
X10798Y26741
X12126Y25713
X12626Y27613
X2526Y31013
X1926Y30613
X1926Y21013
X2526Y21013
X2126Y19213
X726Y18213
X726Y17613
T02
X5326Y32313
X10226Y14113
X10726Y14113
T03
X3926Y23352
X3926Y25274
T04
X6548Y14058
X7482Y14058
X8369Y14058
X9304Y14058
T05
X7226Y20713
X7226Y21713
X6226Y21713
X6226Y20713
X5226Y20713
X5226Y21713
X13326Y21813
X13326Y22813
X13326Y23813
X13326Y24813
X13326Y25813
X13326Y26813
X13326Y27813
X13326Y28813
X13326Y29813
X13326Y30813
X13326Y31813
X14326Y31813
X14326Y30813
X14326Y29813
X14326Y28813
X14326Y27813
X14326Y26813
X14326Y25813
X14326Y24813
X14326Y23813
X14326Y22813
X14326Y21813
X14326Y20813
X14326Y19813
X14326Y18813
X14326Y17813
X13326Y17813
X13326Y18813
X13326Y19813
X13326Y20813
T06
X8811Y13074
X7040Y13074
T07
X5642Y13113
X10209Y13113
T08
X1326Y13113
X1326Y34313
X14526Y34313
X14526Y13113
M30
