G75*
G70*
%OFA0B0*%
%FSLAX24Y24*%
%IPPOS*%
%LPD*%
%AMOC8*
5,1,8,0,0,1.08239X$1,22.5*
%
%ADD10C,0.0740*%
%ADD11C,0.1266*%
%ADD12R,0.0550X0.0137*%
%ADD13R,0.0433X0.0394*%
%ADD14R,0.0394X0.0433*%
%ADD15R,0.0315X0.0315*%
%ADD16R,0.0315X0.0472*%
%ADD17R,0.0500X0.0220*%
%ADD18R,0.0220X0.0500*%
%ADD19C,0.0590*%
%ADD20OC8,0.0740*%
%ADD21R,0.0906X0.0630*%
%ADD22R,0.0740X0.0740*%
%ADD23R,0.0250X0.0500*%
%ADD24R,0.0500X0.0250*%
%ADD25C,0.0120*%
%ADD26C,0.0100*%
%ADD27C,0.0360*%
%ADD28C,0.0160*%
%ADD29C,0.0400*%
%ADD30C,0.0400*%
%ADD31C,0.0240*%
D10*
X006548Y014058D03*
X007482Y014058D03*
X008369Y014058D03*
X009304Y014058D03*
X013326Y018813D03*
X013326Y019813D03*
X013326Y020813D03*
X013326Y021813D03*
X013326Y022813D03*
X013326Y023813D03*
X013326Y024813D03*
X013326Y025813D03*
X013326Y026813D03*
X013326Y027813D03*
X013326Y028813D03*
X013326Y029813D03*
X013326Y030813D03*
X013326Y031813D03*
X014326Y031813D03*
X014326Y030813D03*
X014326Y029813D03*
X014326Y028813D03*
X014326Y027813D03*
X014326Y026813D03*
X014326Y025813D03*
X014326Y024813D03*
X014326Y023813D03*
X014326Y022813D03*
X014326Y021813D03*
X014326Y020813D03*
X014326Y019813D03*
X014326Y018813D03*
X014326Y017813D03*
D11*
X010209Y013113D03*
X005642Y013113D03*
D12*
X005565Y015550D03*
X005565Y015806D03*
X005565Y016061D03*
X005565Y016317D03*
X005565Y016573D03*
X005565Y016829D03*
X005565Y017085D03*
X005565Y017341D03*
X005565Y017597D03*
X005565Y017853D03*
X005565Y018109D03*
X005565Y018365D03*
X005565Y018620D03*
X005565Y018876D03*
X002686Y018876D03*
X002686Y018620D03*
X002686Y018365D03*
X002686Y018109D03*
X002686Y017853D03*
X002686Y017597D03*
X002686Y017341D03*
X002686Y017085D03*
X002686Y016829D03*
X002686Y016573D03*
X002686Y016317D03*
X002686Y016061D03*
X002686Y015806D03*
X002686Y015550D03*
D13*
X006491Y016213D03*
X006491Y016813D03*
X007160Y016813D03*
X007160Y016213D03*
X009391Y015013D03*
X010060Y015013D03*
X010891Y025713D03*
X011560Y025713D03*
X011391Y027613D03*
X012060Y027613D03*
X010460Y030813D03*
X009791Y030813D03*
X005810Y027413D03*
X005810Y026813D03*
X005141Y026813D03*
X005141Y027413D03*
D14*
X005326Y026048D03*
X005326Y025378D03*
X005326Y023548D03*
X005326Y022878D03*
X004226Y020548D03*
X004226Y019878D03*
X003526Y019878D03*
X003526Y020548D03*
X002526Y020448D03*
X002526Y019778D03*
X001926Y019778D03*
X001926Y020448D03*
X001726Y018748D03*
X001726Y018078D03*
X008726Y015648D03*
X008726Y014978D03*
X011426Y026328D03*
X011426Y026998D03*
X012026Y026998D03*
X012026Y026328D03*
X012426Y033278D03*
X012426Y033948D03*
X004126Y033848D03*
X004126Y033178D03*
X003526Y033178D03*
X003526Y033848D03*
D15*
X003521Y034513D03*
X004030Y034513D03*
X004621Y034513D03*
X002930Y034513D03*
X012430Y034513D03*
X013021Y034513D03*
D16*
X010180Y015713D03*
X009471Y015713D03*
D17*
X010216Y026111D03*
X010216Y026426D03*
X010216Y026741D03*
X010216Y027056D03*
X010216Y027370D03*
X010216Y027685D03*
X010216Y028000D03*
X010216Y028315D03*
X006836Y028315D03*
X006836Y028000D03*
X006836Y027685D03*
X006836Y027370D03*
X006836Y027056D03*
X006836Y026741D03*
X006836Y026426D03*
X006836Y026111D03*
D18*
X007423Y025523D03*
X007738Y025523D03*
X008053Y025523D03*
X008368Y025523D03*
X008683Y025523D03*
X008998Y025523D03*
X009313Y025523D03*
X009628Y025523D03*
X009628Y028903D03*
X009313Y028903D03*
X008998Y028903D03*
X008683Y028903D03*
X008368Y028903D03*
X008053Y028903D03*
X007738Y028903D03*
X007423Y028903D03*
D19*
X003926Y025274D03*
X003926Y023352D03*
D20*
X005226Y021713D03*
X005226Y020713D03*
X006226Y020713D03*
X006226Y021713D03*
X007226Y021713D03*
X007226Y020713D03*
D21*
X007185Y033713D03*
X009666Y033713D03*
D22*
X013326Y017813D03*
D23*
X005188Y033213D03*
X004863Y033213D03*
D24*
X014326Y033075D03*
X014326Y032751D03*
D25*
X007033Y015806D02*
X008369Y014469D01*
X008369Y014058D01*
X008369Y014169D01*
X007482Y014058D02*
X007482Y014857D01*
X007226Y015113D01*
X006726Y015113D01*
X006726Y015313D01*
X007126Y015313D01*
X006889Y015550D01*
X005565Y015550D01*
X005565Y015806D02*
X007033Y015806D01*
D26*
X006526Y016213D02*
X006491Y016213D01*
X006426Y016213D01*
X006065Y016573D01*
X005565Y016573D01*
X005565Y016829D02*
X004609Y016829D01*
X003326Y018113D01*
X002691Y018113D01*
X002686Y018109D01*
X001721Y018109D01*
X001626Y018013D01*
X001691Y018013D01*
X001726Y018078D01*
X001326Y017813D02*
X001526Y017613D01*
X002026Y017613D01*
X002265Y017853D01*
X002686Y017853D01*
X002686Y018365D02*
X003477Y018365D01*
X004226Y019113D01*
X004226Y019878D01*
X004226Y020548D02*
X004226Y021013D01*
X004926Y021713D01*
X005226Y021713D01*
X005426Y021713D01*
X006126Y022413D01*
X006126Y023413D01*
X006026Y023513D01*
X006026Y024213D01*
X006376Y024613D02*
X006376Y023573D01*
X010126Y019813D01*
X013326Y019813D01*
X013326Y018813D02*
X009926Y018813D01*
X009026Y019713D01*
X010026Y019313D02*
X013826Y019313D01*
X014326Y018813D01*
X014326Y019813D02*
X013826Y020313D01*
X010126Y020313D01*
X006696Y023743D01*
X006696Y025013D01*
X007026Y025413D02*
X007026Y023913D01*
X010126Y020813D01*
X013326Y020813D01*
X013826Y021313D02*
X010126Y021313D01*
X007423Y024015D01*
X007423Y025523D01*
X007738Y025523D02*
X007738Y024200D01*
X010126Y021813D01*
X013326Y021813D01*
X013326Y022813D02*
X010126Y022813D01*
X008368Y024570D01*
X008368Y025523D01*
X008053Y025523D02*
X008053Y024385D01*
X010126Y022313D01*
X013826Y022313D01*
X014326Y021813D01*
X014326Y022813D02*
X013826Y023313D01*
X010126Y023313D01*
X008683Y024756D01*
X008683Y025523D01*
X008998Y025523D02*
X008998Y024941D01*
X010026Y023913D01*
X012926Y023913D01*
X013026Y023813D01*
X013326Y023813D01*
X013838Y024300D02*
X010238Y024300D01*
X009313Y025226D01*
X009313Y025523D01*
X009628Y025523D02*
X010338Y024813D01*
X013326Y024813D01*
X013826Y025313D02*
X010526Y025313D01*
X010226Y025613D01*
X010226Y026101D01*
X010216Y026111D01*
X010218Y026113D01*
X010216Y026426D02*
X010513Y026426D01*
X010626Y026313D01*
X010891Y026048D01*
X010891Y025713D01*
X010626Y026313D02*
X011310Y026313D01*
X011426Y026328D01*
X012026Y026328D01*
X011941Y026313D01*
X013826Y026313D01*
X014326Y026813D01*
X014326Y027813D02*
X013823Y028315D01*
X010216Y028315D01*
X010218Y028313D01*
X010216Y028000D02*
X013138Y028000D01*
X013326Y027813D01*
X012926Y027013D02*
X011926Y027013D01*
X012026Y026998D01*
X011426Y026998D01*
X011391Y027063D01*
X011391Y027613D01*
X011268Y027056D02*
X011426Y026998D01*
X011268Y027056D02*
X010216Y027056D01*
X010216Y026741D02*
X010798Y026741D01*
X010826Y026713D01*
X010826Y027613D02*
X010753Y027685D01*
X010216Y027685D01*
X009628Y028903D02*
X009638Y028913D01*
X012826Y028913D01*
X012926Y028813D01*
X013326Y028813D01*
X013826Y029313D02*
X009426Y029313D01*
X009313Y029200D01*
X009313Y028903D01*
X008998Y028903D02*
X008998Y029285D01*
X009526Y029813D01*
X013326Y029813D01*
X013826Y030313D02*
X009626Y030313D01*
X008683Y029370D01*
X008683Y028903D01*
X008368Y028903D02*
X008368Y029656D01*
X008576Y029863D01*
X009526Y030813D01*
X009791Y030813D01*
X009666Y030938D01*
X009666Y033713D01*
X010460Y030813D02*
X012526Y030813D01*
X013026Y031313D01*
X013826Y031313D01*
X014326Y031813D01*
X013826Y030313D02*
X014326Y029813D01*
X013826Y029313D02*
X014326Y028813D01*
X013326Y026813D02*
X013126Y026813D01*
X012926Y027013D01*
X012626Y027613D02*
X012060Y027613D01*
X012126Y025713D02*
X011560Y025713D01*
X013826Y025313D02*
X014326Y024813D01*
X013838Y024300D02*
X014326Y023813D01*
X013826Y021313D02*
X014326Y020813D01*
X008053Y028903D02*
X008053Y030185D01*
X007226Y031013D01*
X002526Y031013D01*
X001926Y030613D02*
X007026Y030613D01*
X007738Y029900D01*
X007738Y028903D01*
X007426Y028905D02*
X007423Y028903D01*
X007426Y028905D02*
X007426Y029513D01*
X008053Y029985D02*
X008053Y028903D01*
X006836Y028703D02*
X006836Y028315D01*
X006836Y028000D02*
X006238Y028000D01*
X006226Y028013D01*
X005876Y027513D02*
X006018Y027370D01*
X006103Y027370D01*
X006123Y027370D01*
X006126Y027373D01*
X006106Y027373D01*
X006103Y027370D02*
X005810Y027413D01*
X005810Y026813D02*
X006088Y026741D01*
X006326Y026741D01*
X006316Y026751D01*
X006316Y027073D01*
X006316Y027360D01*
X006326Y027370D01*
X006123Y027370D01*
X006126Y027373D02*
X006586Y027373D01*
X006836Y027370D02*
X006326Y027370D01*
X006326Y026741D02*
X006836Y026741D01*
X006658Y026741D01*
X006836Y026426D02*
X006438Y026426D01*
X005926Y025913D01*
X005926Y025613D01*
X005691Y025378D01*
X005326Y025378D01*
X005221Y025274D01*
X003926Y025274D01*
X003926Y023352D02*
X005130Y023352D01*
X005326Y023548D01*
X005326Y024513D01*
X006226Y025413D01*
X006226Y025813D01*
X006523Y026111D01*
X006836Y026111D01*
X006836Y028703D02*
X006726Y028713D01*
X004126Y033848D02*
X004621Y034352D01*
X004621Y034513D01*
X004030Y034513D02*
X004030Y034808D01*
X003826Y035013D01*
X002626Y035013D01*
X002326Y034713D01*
X002326Y033913D01*
X001726Y033313D01*
X000926Y033313D01*
X000626Y033013D01*
X000626Y018313D01*
X000726Y018213D01*
X001126Y018013D02*
X000726Y017613D01*
X001126Y018013D02*
X001126Y033113D01*
X001826Y033113D01*
X002526Y033813D01*
X002526Y034413D01*
X002626Y034513D01*
X002930Y034513D01*
X003521Y034513D02*
X003521Y033852D01*
X003526Y033848D01*
X002526Y021013D02*
X002526Y020448D01*
X002526Y019778D02*
X002526Y019037D01*
X002686Y018876D01*
X002686Y018620D02*
X003233Y018620D01*
X003526Y018913D01*
X003526Y019878D01*
X003526Y020548D02*
X004226Y020548D01*
X005565Y017597D02*
X006009Y017597D01*
X006626Y018213D01*
X006626Y017613D02*
X006354Y017341D01*
X005565Y017341D01*
X005565Y016829D02*
X006475Y016829D01*
X006491Y016813D01*
X001926Y019778D02*
X001326Y019178D01*
X001326Y017813D01*
X001926Y020448D02*
X001926Y021013D01*
X012421Y033852D02*
X012426Y033948D01*
X012421Y033852D02*
X012430Y034513D01*
D27*
X012626Y027613D03*
X012126Y025713D03*
X010798Y026741D03*
X010826Y027613D03*
X008576Y029863D03*
X007426Y029513D03*
X006726Y028713D03*
X006226Y028013D03*
X006316Y027073D03*
X007026Y025413D03*
X006696Y025013D03*
X006376Y024613D03*
X006026Y024213D03*
X009026Y019713D03*
X010026Y019313D03*
X009126Y016913D03*
X008726Y016213D03*
X008126Y015613D03*
X007726Y016213D03*
X007726Y016913D03*
X006626Y017613D03*
X006626Y018213D03*
X009526Y016313D03*
X002526Y021013D03*
X001926Y021013D03*
X002126Y019213D03*
X000726Y018213D03*
X000726Y017613D03*
X001926Y030613D03*
X002526Y031013D03*
D28*
X002156Y012558D02*
X001992Y012393D01*
X005308Y012393D01*
X005193Y012441D01*
X004970Y012664D01*
X004849Y012955D01*
X004849Y013271D01*
X004970Y013562D01*
X005193Y013785D01*
X005484Y013906D01*
X005800Y013906D01*
X006063Y013797D01*
X006038Y013847D01*
X006011Y013929D01*
X005998Y014015D01*
X005998Y014048D01*
X006538Y014048D01*
X006538Y014068D01*
X006538Y014608D01*
X006504Y014608D01*
X006419Y014594D01*
X006337Y014568D01*
X006259Y014528D01*
X006189Y014477D01*
X006128Y014416D01*
X006077Y014346D01*
X006038Y014269D01*
X006011Y014187D01*
X005998Y014101D01*
X005998Y014068D01*
X006538Y014068D01*
X006558Y014068D01*
X006558Y014608D01*
X006591Y014608D01*
X006676Y014594D01*
X006759Y014568D01*
X006836Y014528D01*
X006906Y014477D01*
X006967Y014416D01*
X007018Y014346D01*
X007023Y014336D01*
X007033Y014358D01*
X007182Y014507D01*
X007262Y014540D01*
X007262Y014766D01*
X007134Y014893D01*
X006634Y014893D01*
X006506Y015022D01*
X006506Y015330D01*
X005915Y015330D01*
X005906Y015321D01*
X005224Y015321D01*
X005130Y015415D01*
X005130Y016166D01*
X005122Y016179D01*
X005110Y016225D01*
X005110Y016317D01*
X005565Y016317D01*
X005565Y016317D01*
X006020Y016317D01*
X006020Y016225D01*
X006008Y016179D01*
X006000Y016166D01*
X006000Y016026D01*
X006114Y016026D01*
X006114Y016227D01*
X006020Y016322D01*
X006020Y016317D01*
X005565Y016317D01*
X005565Y016317D01*
X005110Y016317D01*
X005110Y016410D01*
X005122Y016455D01*
X005130Y016469D01*
X005130Y016619D01*
X004522Y016619D01*
X003239Y017903D01*
X003121Y017903D01*
X003121Y017492D01*
X003129Y017479D01*
X003141Y017433D01*
X003141Y017341D01*
X002686Y017341D01*
X002686Y017341D01*
X002231Y017341D01*
X002231Y017433D01*
X002243Y017479D01*
X002251Y017492D01*
X002251Y017542D01*
X002113Y017403D01*
X001439Y017403D01*
X001239Y017603D01*
X001239Y017603D01*
X001126Y017716D01*
X001066Y017656D01*
X001066Y017545D01*
X001014Y017420D01*
X000918Y017325D01*
X000793Y017273D01*
X000658Y017273D01*
X000606Y017295D01*
X000606Y013779D01*
X000770Y013944D01*
X001131Y014093D01*
X001521Y014093D01*
X001881Y013944D01*
X002156Y013668D01*
X002306Y013308D01*
X002306Y012918D01*
X002156Y012558D01*
X002146Y012547D02*
X005087Y012547D01*
X004953Y012705D02*
X002218Y012705D01*
X002283Y012864D02*
X004887Y012864D01*
X004849Y013022D02*
X002306Y013022D01*
X002306Y013181D02*
X004849Y013181D01*
X004878Y013339D02*
X002293Y013339D01*
X002227Y013498D02*
X004943Y013498D01*
X005064Y013656D02*
X002161Y013656D01*
X002010Y013815D02*
X005265Y013815D01*
X006020Y013815D02*
X006054Y013815D01*
X006004Y013973D02*
X001809Y013973D01*
X002345Y015321D02*
X002251Y015415D01*
X002251Y017190D01*
X002243Y017203D01*
X002231Y017249D01*
X002231Y017341D01*
X002686Y017341D01*
X002686Y017341D01*
X003141Y017341D01*
X003141Y017249D01*
X003129Y017203D01*
X003121Y017190D01*
X003121Y015415D01*
X003027Y015321D01*
X002345Y015321D01*
X002266Y015400D02*
X000606Y015400D01*
X000606Y015558D02*
X002251Y015558D01*
X002251Y015717D02*
X000606Y015717D01*
X000606Y015875D02*
X002251Y015875D01*
X002251Y016034D02*
X000606Y016034D01*
X000606Y016192D02*
X002251Y016192D01*
X002251Y016351D02*
X000606Y016351D01*
X000606Y016509D02*
X002251Y016509D01*
X002251Y016668D02*
X000606Y016668D01*
X000606Y016826D02*
X002251Y016826D01*
X002251Y016985D02*
X000606Y016985D01*
X000606Y017144D02*
X002251Y017144D01*
X002231Y017302D02*
X000863Y017302D01*
X001030Y017461D02*
X001381Y017461D01*
X001223Y017619D02*
X001066Y017619D01*
X001707Y018766D02*
X001707Y019144D01*
X001588Y019144D01*
X001846Y019402D01*
X002189Y019402D01*
X002226Y019439D01*
X002262Y019402D01*
X002316Y019402D01*
X002316Y019076D01*
X002251Y019011D01*
X002251Y018319D01*
X002082Y018319D01*
X002082Y018361D01*
X002045Y018399D01*
X002066Y018421D01*
X002090Y018462D01*
X002102Y018507D01*
X002102Y018729D01*
X001744Y018729D01*
X001744Y018766D01*
X002102Y018766D01*
X002102Y018988D01*
X002090Y019034D01*
X002066Y019075D01*
X002033Y019108D01*
X001992Y019132D01*
X001946Y019144D01*
X001744Y019144D01*
X001744Y018766D01*
X001707Y018766D01*
X001707Y018887D02*
X001744Y018887D01*
X001744Y019046D02*
X001707Y019046D01*
X001648Y019204D02*
X002316Y019204D01*
X002316Y019363D02*
X001807Y019363D01*
X001530Y019680D02*
X001336Y019680D01*
X001336Y019838D02*
X001569Y019838D01*
X001569Y019718D02*
X001336Y019485D01*
X001336Y032903D01*
X001913Y032903D01*
X002036Y033026D01*
X002736Y033726D01*
X002736Y034196D01*
X003154Y034196D01*
X003226Y034267D01*
X003268Y034224D01*
X003262Y034224D01*
X003169Y034130D01*
X003169Y033565D01*
X003221Y033513D01*
X003169Y033461D01*
X003169Y032896D01*
X003262Y032802D01*
X003789Y032802D01*
X003826Y032839D01*
X003862Y032802D01*
X004389Y032802D01*
X004482Y032896D01*
X004482Y032938D01*
X004578Y032938D01*
X004578Y032897D01*
X004672Y032803D01*
X005086Y032803D01*
X005086Y032582D01*
X005020Y032517D01*
X004966Y032385D01*
X004966Y032241D01*
X005020Y032109D01*
X005122Y032008D01*
X005254Y031953D01*
X005397Y031953D01*
X005530Y032008D01*
X005631Y032109D01*
X005686Y032241D01*
X005686Y032385D01*
X005631Y032517D01*
X005566Y032582D01*
X005566Y033261D01*
X005529Y033349D01*
X005473Y033405D01*
X005473Y033529D01*
X005379Y033623D01*
X004672Y033623D01*
X004578Y033529D01*
X004578Y033418D01*
X004482Y033418D01*
X004482Y033461D01*
X004431Y033513D01*
X004482Y033565D01*
X004482Y033911D01*
X004761Y034196D01*
X004845Y034196D01*
X004938Y034289D01*
X004938Y034737D01*
X012113Y034737D01*
X012113Y034289D01*
X012120Y034282D01*
X012069Y034230D01*
X012069Y033665D01*
X012106Y033627D01*
X012085Y033605D01*
X012061Y033564D01*
X012049Y033519D01*
X012049Y033297D01*
X012407Y033297D01*
X012407Y033260D01*
X012049Y033260D01*
X012049Y033038D01*
X012061Y032992D01*
X012085Y032951D01*
X012118Y032918D01*
X012159Y032894D01*
X012205Y032882D01*
X012407Y032882D01*
X012407Y033260D01*
X012444Y033260D01*
X012444Y033297D01*
X012802Y033297D01*
X012802Y033519D01*
X012790Y033564D01*
X012766Y033605D01*
X012745Y033627D01*
X012782Y033665D01*
X012782Y034210D01*
X012797Y034196D01*
X013004Y034196D01*
X013086Y034114D01*
X013086Y033865D01*
X013122Y033777D01*
X013190Y033710D01*
X013916Y032984D01*
X013916Y032560D01*
X014009Y032466D01*
X014086Y032466D01*
X014086Y032287D01*
X014025Y032262D01*
X013876Y032113D01*
X013837Y032019D01*
X013835Y032024D01*
X013796Y032101D01*
X013745Y032171D01*
X013684Y032233D01*
X013614Y032283D01*
X013537Y032323D01*
X013454Y032349D01*
X013369Y032363D01*
X013346Y032363D01*
X013346Y031833D01*
X013306Y031833D01*
X013306Y032363D01*
X013282Y032363D01*
X013197Y032349D01*
X013114Y032323D01*
X013037Y032283D01*
X012967Y032233D01*
X012906Y032171D01*
X012855Y032101D01*
X012816Y032024D01*
X012789Y031942D01*
X012776Y031856D01*
X012776Y031833D01*
X013306Y031833D01*
X013306Y031793D01*
X012776Y031793D01*
X012776Y031770D01*
X012789Y031684D01*
X012816Y031602D01*
X012855Y031525D01*
X012891Y031475D01*
X012816Y031400D01*
X012439Y031023D01*
X010837Y031023D01*
X010837Y031076D01*
X010743Y031170D01*
X010177Y031170D01*
X010126Y031118D01*
X010074Y031170D01*
X009876Y031170D01*
X009876Y033238D01*
X010185Y033238D01*
X010279Y033332D01*
X010279Y034094D01*
X010185Y034188D01*
X009147Y034188D01*
X009053Y034094D01*
X009053Y033332D01*
X009147Y033238D01*
X009456Y033238D01*
X009456Y031117D01*
X009414Y031076D01*
X009414Y030999D01*
X009316Y030900D01*
X008619Y030203D01*
X008508Y030203D01*
X008383Y030151D01*
X008287Y030056D01*
X008263Y029997D01*
X008263Y030272D01*
X007436Y031100D01*
X007313Y031223D01*
X002796Y031223D01*
X002718Y031301D01*
X002593Y031353D01*
X002458Y031353D01*
X002333Y031301D01*
X002237Y031206D01*
X002186Y031081D01*
X002186Y030945D01*
X002236Y030823D01*
X002196Y030823D01*
X002118Y030901D01*
X001993Y030953D01*
X001858Y030953D01*
X001733Y030901D01*
X001637Y030806D01*
X001586Y030681D01*
X001586Y030545D01*
X001637Y030420D01*
X001733Y030325D01*
X001858Y030273D01*
X001993Y030273D01*
X002118Y030325D01*
X002196Y030403D01*
X006939Y030403D01*
X007489Y029853D01*
X007358Y029853D01*
X007233Y029801D01*
X007137Y029706D01*
X007086Y029581D01*
X007086Y029445D01*
X007137Y029320D01*
X007196Y029262D01*
X007153Y029219D01*
X007153Y028587D01*
X007247Y028493D01*
X009804Y028493D01*
X009898Y028587D01*
X009898Y028703D01*
X012739Y028703D01*
X012839Y028603D01*
X012871Y028525D01*
X010592Y028525D01*
X010532Y028585D01*
X009899Y028585D01*
X009806Y028492D01*
X009806Y027563D01*
X009798Y027550D01*
X009786Y027504D01*
X009786Y027370D01*
X009786Y027237D01*
X009798Y027191D01*
X009806Y027178D01*
X009806Y025934D01*
X009899Y025841D01*
X010016Y025841D01*
X010016Y025526D01*
X010139Y025403D01*
X010439Y025103D01*
X012872Y025103D01*
X012839Y025023D01*
X010425Y025023D01*
X009898Y025550D01*
X009898Y025839D01*
X009804Y025933D01*
X007247Y025933D01*
X007153Y025839D01*
X007153Y025728D01*
X007093Y025753D01*
X006958Y025753D01*
X006833Y025701D01*
X006737Y025606D01*
X006686Y025481D01*
X006686Y025353D01*
X006628Y025353D01*
X006503Y025301D01*
X006407Y025206D01*
X006356Y025081D01*
X006356Y024953D01*
X006308Y024953D01*
X006183Y024901D01*
X006087Y024806D01*
X006036Y024681D01*
X006036Y024553D01*
X005958Y024553D01*
X005833Y024501D01*
X005737Y024406D01*
X005686Y024281D01*
X005686Y024145D01*
X005737Y024020D01*
X005816Y023942D01*
X005816Y023426D01*
X005916Y023326D01*
X005916Y022500D01*
X005552Y022136D01*
X005445Y022243D01*
X005006Y022243D01*
X004696Y021933D01*
X004696Y021780D01*
X004139Y021223D01*
X004016Y021100D01*
X004016Y020924D01*
X003962Y020924D01*
X003876Y020837D01*
X003789Y020924D01*
X003262Y020924D01*
X003169Y020830D01*
X003169Y020265D01*
X003221Y020213D01*
X003169Y020161D01*
X003169Y019596D01*
X003262Y019502D01*
X003316Y019502D01*
X003316Y019000D01*
X003146Y018830D01*
X003121Y018830D01*
X003121Y019011D01*
X003027Y019105D01*
X002755Y019105D01*
X002736Y019124D01*
X002736Y019402D01*
X002789Y019402D01*
X002882Y019496D01*
X002882Y020061D01*
X002831Y020113D01*
X002882Y020165D01*
X002882Y020730D01*
X002803Y020810D01*
X002814Y020820D01*
X002866Y020945D01*
X002866Y021081D01*
X002814Y021206D01*
X002718Y021301D01*
X002593Y021353D01*
X002458Y021353D01*
X002333Y021301D01*
X002237Y021206D01*
X002226Y021177D01*
X002214Y021206D01*
X002118Y021301D01*
X001993Y021353D01*
X001858Y021353D01*
X001733Y021301D01*
X001637Y021206D01*
X001586Y021081D01*
X001586Y020945D01*
X001637Y020820D01*
X001648Y020810D01*
X001569Y020730D01*
X001569Y020165D01*
X001621Y020113D01*
X001569Y020061D01*
X001569Y019718D01*
X001569Y019997D02*
X001336Y019997D01*
X001336Y020155D02*
X001579Y020155D01*
X001569Y020314D02*
X001336Y020314D01*
X001336Y020472D02*
X001569Y020472D01*
X001569Y020631D02*
X001336Y020631D01*
X001336Y020789D02*
X001627Y020789D01*
X001586Y020948D02*
X001336Y020948D01*
X001336Y021106D02*
X001596Y021106D01*
X001696Y021265D02*
X001336Y021265D01*
X001336Y021423D02*
X004339Y021423D01*
X004497Y021582D02*
X001336Y021582D01*
X001336Y021740D02*
X004656Y021740D01*
X004696Y021899D02*
X001336Y021899D01*
X001336Y022057D02*
X004820Y022057D01*
X004979Y022216D02*
X001336Y022216D01*
X001336Y022374D02*
X005790Y022374D01*
X005916Y022533D02*
X005648Y022533D01*
X005633Y022518D02*
X005666Y022551D01*
X005690Y022592D01*
X005702Y022638D01*
X005702Y022860D01*
X005344Y022860D01*
X005344Y022897D01*
X005702Y022897D01*
X005702Y023119D01*
X005690Y023164D01*
X005666Y023205D01*
X005645Y023227D01*
X005682Y023265D01*
X005682Y023830D01*
X005589Y023924D01*
X005536Y023924D01*
X005536Y024426D01*
X006436Y025326D01*
X006436Y025726D01*
X006550Y025841D01*
X007152Y025841D01*
X007246Y025934D01*
X007246Y026863D01*
X007253Y026876D01*
X007266Y026922D01*
X007266Y027056D01*
X007266Y027189D01*
X007253Y027235D01*
X007246Y027248D01*
X007246Y027493D01*
X007253Y027506D01*
X007266Y027552D01*
X007266Y027685D01*
X006836Y027685D01*
X006836Y027685D01*
X007266Y027685D01*
X007266Y027819D01*
X007253Y027865D01*
X007246Y027878D01*
X007246Y028492D01*
X007152Y028585D01*
X007046Y028585D01*
X007046Y028597D01*
X007066Y028645D01*
X007066Y028781D01*
X007014Y028906D01*
X006918Y029001D01*
X006793Y029053D01*
X006658Y029053D01*
X006533Y029001D01*
X006437Y028906D01*
X006386Y028781D01*
X006386Y028645D01*
X006437Y028520D01*
X006446Y028512D01*
X006426Y028492D01*
X006426Y028294D01*
X006418Y028301D01*
X006293Y028353D01*
X006158Y028353D01*
X006033Y028301D01*
X005937Y028206D01*
X005886Y028081D01*
X005886Y027945D01*
X005937Y027820D01*
X005988Y027770D01*
X005527Y027770D01*
X005490Y027732D01*
X005468Y027754D01*
X005427Y027778D01*
X005381Y027790D01*
X005159Y027790D01*
X005159Y027431D01*
X005123Y027431D01*
X005123Y027395D01*
X004744Y027395D01*
X004744Y027192D01*
X004757Y027147D01*
X004776Y027113D01*
X004757Y027079D01*
X004744Y027034D01*
X004744Y026831D01*
X005123Y026831D01*
X005123Y026795D01*
X004744Y026795D01*
X004744Y026592D01*
X004757Y026547D01*
X004780Y026506D01*
X004814Y026472D01*
X004855Y026448D01*
X004901Y026436D01*
X005075Y026436D01*
X005059Y026432D01*
X005018Y026408D01*
X004985Y026375D01*
X004961Y026334D01*
X004949Y026288D01*
X004949Y026066D01*
X005307Y026066D01*
X005307Y026029D01*
X004949Y026029D01*
X004949Y025807D01*
X004961Y025762D01*
X004985Y025721D01*
X005006Y025699D01*
X004969Y025661D01*
X004969Y025484D01*
X004331Y025484D01*
X004311Y025531D01*
X004183Y025659D01*
X004016Y025729D01*
X003835Y025729D01*
X003668Y025659D01*
X003540Y025531D01*
X003471Y025364D01*
X003471Y025183D01*
X003540Y025016D01*
X003668Y024888D01*
X003835Y024819D01*
X004016Y024819D01*
X004183Y024888D01*
X004311Y025016D01*
X004331Y025064D01*
X005001Y025064D01*
X005062Y025002D01*
X005517Y025002D01*
X005239Y024723D01*
X005116Y024600D01*
X005116Y023924D01*
X005062Y023924D01*
X004969Y023830D01*
X004969Y023562D01*
X004331Y023562D01*
X004311Y023610D01*
X004183Y023738D01*
X004016Y023807D01*
X003835Y023807D01*
X003668Y023738D01*
X003540Y023610D01*
X003471Y023443D01*
X003471Y023262D01*
X003540Y023095D01*
X003668Y022967D01*
X003835Y022897D01*
X004016Y022897D01*
X004183Y022967D01*
X004311Y023095D01*
X004331Y023142D01*
X004955Y023142D01*
X004949Y023119D01*
X004949Y022897D01*
X005307Y022897D01*
X005307Y022860D01*
X004949Y022860D01*
X004949Y022638D01*
X004961Y022592D01*
X004985Y022551D01*
X005018Y022518D01*
X005059Y022494D01*
X005105Y022482D01*
X005307Y022482D01*
X005307Y022860D01*
X005344Y022860D01*
X005344Y022482D01*
X005546Y022482D01*
X005592Y022494D01*
X005633Y022518D01*
X005702Y022691D02*
X005916Y022691D01*
X005916Y022850D02*
X005702Y022850D01*
X005702Y023008D02*
X005916Y023008D01*
X005916Y023167D02*
X005689Y023167D01*
X005682Y023325D02*
X005916Y023325D01*
X005816Y023484D02*
X005682Y023484D01*
X005682Y023642D02*
X005816Y023642D01*
X005816Y023801D02*
X005682Y023801D01*
X005799Y023959D02*
X005536Y023959D01*
X005536Y024118D02*
X005697Y024118D01*
X005686Y024276D02*
X005536Y024276D01*
X005544Y024435D02*
X005766Y024435D01*
X005703Y024593D02*
X006036Y024593D01*
X006065Y024752D02*
X005861Y024752D01*
X006020Y024910D02*
X006204Y024910D01*
X006178Y025069D02*
X006356Y025069D01*
X006337Y025227D02*
X006429Y025227D01*
X006436Y025386D02*
X006686Y025386D01*
X006712Y025544D02*
X006436Y025544D01*
X006436Y025703D02*
X006836Y025703D01*
X007172Y025861D02*
X007175Y025861D01*
X007246Y026020D02*
X009806Y026020D01*
X009806Y026178D02*
X007246Y026178D01*
X007246Y026337D02*
X009806Y026337D01*
X009806Y026495D02*
X007246Y026495D01*
X007246Y026654D02*
X009806Y026654D01*
X009806Y026812D02*
X007246Y026812D01*
X007266Y026971D02*
X009806Y026971D01*
X009806Y027129D02*
X007266Y027129D01*
X007266Y027056D02*
X006836Y027056D01*
X006836Y027056D01*
X007266Y027056D01*
X007246Y027288D02*
X009786Y027288D01*
X009786Y027370D02*
X010216Y027370D01*
X010216Y027370D01*
X009786Y027370D01*
X009786Y027446D02*
X007246Y027446D01*
X007266Y027605D02*
X009806Y027605D01*
X009806Y027763D02*
X007266Y027763D01*
X007246Y027922D02*
X009806Y027922D01*
X009806Y028080D02*
X007246Y028080D01*
X007246Y028239D02*
X009806Y028239D01*
X009806Y028397D02*
X007246Y028397D01*
X007184Y028556D02*
X007182Y028556D01*
X007153Y028714D02*
X007066Y028714D01*
X007028Y028873D02*
X007153Y028873D01*
X007153Y029031D02*
X006846Y029031D01*
X006605Y029031D02*
X001336Y029031D01*
X001336Y028873D02*
X006424Y028873D01*
X006386Y028714D02*
X001336Y028714D01*
X001336Y028556D02*
X006423Y028556D01*
X006426Y028397D02*
X001336Y028397D01*
X001336Y028239D02*
X005970Y028239D01*
X005886Y028080D02*
X001336Y028080D01*
X001336Y027922D02*
X005895Y027922D01*
X006187Y027673D02*
X006293Y027673D01*
X006406Y027720D01*
X006406Y027685D01*
X006406Y027583D01*
X006187Y027583D01*
X006187Y027673D01*
X006187Y027605D02*
X006406Y027605D01*
X006406Y027685D02*
X006836Y027685D01*
X006836Y027685D01*
X006406Y027685D01*
X006246Y026531D02*
X005839Y026123D01*
X005716Y026000D01*
X005716Y025700D01*
X005680Y025664D01*
X005645Y025699D01*
X005666Y025721D01*
X005690Y025762D01*
X005702Y025807D01*
X005702Y026029D01*
X005344Y026029D01*
X005344Y026066D01*
X005702Y026066D01*
X005702Y026288D01*
X005690Y026334D01*
X005666Y026375D01*
X005633Y026408D01*
X005592Y026432D01*
X005546Y026444D01*
X005411Y026444D01*
X005427Y026448D01*
X005468Y026472D01*
X005490Y026494D01*
X005527Y026456D01*
X006093Y026456D01*
X006167Y026531D01*
X006246Y026531D01*
X006211Y026495D02*
X006132Y026495D01*
X006052Y026337D02*
X005689Y026337D01*
X005702Y026178D02*
X005894Y026178D01*
X005735Y026020D02*
X005702Y026020D01*
X005702Y025861D02*
X005716Y025861D01*
X005716Y025703D02*
X005648Y025703D01*
X005426Y024910D02*
X004205Y024910D01*
X004299Y025544D02*
X004969Y025544D01*
X005003Y025703D02*
X004079Y025703D01*
X003772Y025703D02*
X001336Y025703D01*
X001336Y025861D02*
X004949Y025861D01*
X004949Y026020D02*
X001336Y026020D01*
X001336Y026178D02*
X004949Y026178D01*
X004963Y026337D02*
X001336Y026337D01*
X001336Y026495D02*
X004791Y026495D01*
X004744Y026654D02*
X001336Y026654D01*
X001336Y026812D02*
X005123Y026812D01*
X005123Y026831D02*
X005123Y027036D01*
X005123Y027395D01*
X005159Y027395D01*
X005159Y026831D01*
X005123Y026831D01*
X005123Y026971D02*
X005159Y026971D01*
X005159Y027129D02*
X005123Y027129D01*
X005123Y027288D02*
X005159Y027288D01*
X005123Y027431D02*
X004744Y027431D01*
X004744Y027634D01*
X004757Y027679D01*
X004780Y027720D01*
X004814Y027754D01*
X004855Y027778D01*
X004901Y027790D01*
X005123Y027790D01*
X005123Y027431D01*
X005123Y027446D02*
X005159Y027446D01*
X005159Y027605D02*
X005123Y027605D01*
X005123Y027763D02*
X005159Y027763D01*
X005452Y027763D02*
X005521Y027763D01*
X004830Y027763D02*
X001336Y027763D01*
X001336Y027605D02*
X004744Y027605D01*
X004744Y027446D02*
X001336Y027446D01*
X001336Y027288D02*
X004744Y027288D01*
X004767Y027129D02*
X001336Y027129D01*
X001336Y026971D02*
X004744Y026971D01*
X003646Y024910D02*
X001336Y024910D01*
X001336Y024752D02*
X005267Y024752D01*
X005116Y024593D02*
X001336Y024593D01*
X001336Y024435D02*
X005116Y024435D01*
X005116Y024276D02*
X001336Y024276D01*
X001336Y024118D02*
X005116Y024118D01*
X005116Y023959D02*
X001336Y023959D01*
X001336Y023801D02*
X003819Y023801D01*
X004033Y023801D02*
X004969Y023801D01*
X004969Y023642D02*
X004279Y023642D01*
X004225Y023008D02*
X004949Y023008D01*
X004949Y022850D02*
X001336Y022850D01*
X001336Y023008D02*
X003626Y023008D01*
X003510Y023167D02*
X001336Y023167D01*
X001336Y023325D02*
X003471Y023325D01*
X003487Y023484D02*
X001336Y023484D01*
X001336Y023642D02*
X003572Y023642D01*
X003518Y025069D02*
X001336Y025069D01*
X001336Y025227D02*
X003471Y025227D01*
X003479Y025386D02*
X001336Y025386D01*
X001336Y025544D02*
X003553Y025544D01*
X004949Y022691D02*
X001336Y022691D01*
X001336Y022533D02*
X005003Y022533D01*
X005307Y022533D02*
X005344Y022533D01*
X005344Y022691D02*
X005307Y022691D01*
X005307Y022850D02*
X005344Y022850D01*
X005473Y022216D02*
X005631Y022216D01*
X004849Y021340D02*
X004962Y021227D01*
X004676Y020941D01*
X004676Y020733D01*
X005206Y020733D01*
X005206Y020693D01*
X005246Y020693D01*
X005246Y020163D01*
X005453Y020163D01*
X005740Y020449D01*
X006006Y020183D01*
X006445Y020183D01*
X006726Y020463D01*
X006946Y020243D01*
X006946Y018329D01*
X006914Y018406D01*
X006818Y018501D01*
X006693Y018553D01*
X006558Y018553D01*
X006433Y018501D01*
X006337Y018406D01*
X006286Y018281D01*
X006286Y018170D01*
X006000Y017884D01*
X006000Y017957D01*
X006008Y017971D01*
X006020Y018016D01*
X006020Y018109D01*
X006020Y018201D01*
X006010Y018237D01*
X006020Y018272D01*
X006020Y018365D01*
X006020Y018457D01*
X006008Y018503D01*
X006000Y018516D01*
X006000Y019011D01*
X005906Y019105D01*
X005224Y019105D01*
X005130Y019011D01*
X005130Y018516D01*
X005122Y018503D01*
X005110Y018457D01*
X005110Y018365D01*
X005565Y018365D01*
X006020Y018365D01*
X005565Y018365D01*
X005565Y018365D01*
X005565Y018365D01*
X005110Y018365D01*
X005110Y018272D01*
X005120Y018237D01*
X005110Y018201D01*
X005110Y018109D01*
X005565Y018109D01*
X005565Y018109D01*
X005565Y018365D01*
X005565Y018365D01*
X005565Y018357D01*
X005565Y018109D01*
X006020Y018109D01*
X005565Y018109D01*
X005565Y018109D01*
X005565Y018109D01*
X005110Y018109D01*
X005110Y018016D01*
X005122Y017971D01*
X005130Y017957D01*
X005130Y017236D01*
X005122Y017223D01*
X005110Y017177D01*
X005110Y017085D01*
X005110Y017039D01*
X004696Y017039D01*
X003573Y018163D01*
X004313Y018903D01*
X004436Y019026D01*
X004436Y019502D01*
X004489Y019502D01*
X004582Y019596D01*
X004582Y020161D01*
X004531Y020213D01*
X004582Y020265D01*
X004582Y020830D01*
X004489Y020924D01*
X004436Y020924D01*
X004436Y020926D01*
X004849Y021340D01*
X004774Y021265D02*
X004925Y021265D01*
X004841Y021106D02*
X004616Y021106D01*
X004682Y020948D02*
X004457Y020948D01*
X004582Y020789D02*
X004676Y020789D01*
X004676Y020693D02*
X004676Y020485D01*
X004998Y020163D01*
X005206Y020163D01*
X005206Y020693D01*
X004676Y020693D01*
X004676Y020631D02*
X004582Y020631D01*
X004582Y020472D02*
X004689Y020472D01*
X004582Y020314D02*
X004847Y020314D01*
X004582Y020155D02*
X006946Y020155D01*
X006946Y019997D02*
X004582Y019997D01*
X004582Y019838D02*
X006946Y019838D01*
X006946Y019680D02*
X004582Y019680D01*
X004508Y019521D02*
X006946Y019521D01*
X006946Y019363D02*
X004436Y019363D01*
X004436Y019204D02*
X006946Y019204D01*
X006946Y019046D02*
X005966Y019046D01*
X006000Y018887D02*
X006946Y018887D01*
X006946Y018729D02*
X006000Y018729D01*
X006000Y018570D02*
X006946Y018570D01*
X006946Y018412D02*
X006908Y018412D01*
X006343Y018412D02*
X006020Y018412D01*
X006015Y018253D02*
X006286Y018253D01*
X006210Y018095D02*
X006020Y018095D01*
X006000Y017936D02*
X006052Y017936D01*
X005565Y018253D02*
X005565Y018253D01*
X005164Y019046D02*
X004436Y019046D01*
X004297Y018887D02*
X005130Y018887D01*
X005130Y018729D02*
X004138Y018729D01*
X003980Y018570D02*
X005130Y018570D01*
X005110Y018412D02*
X003821Y018412D01*
X003663Y018253D02*
X005115Y018253D01*
X005110Y018095D02*
X003641Y018095D01*
X003800Y017936D02*
X005130Y017936D01*
X005130Y017778D02*
X003958Y017778D01*
X004117Y017619D02*
X005130Y017619D01*
X005130Y017461D02*
X004275Y017461D01*
X004434Y017302D02*
X005130Y017302D01*
X005110Y017144D02*
X004592Y017144D01*
X004474Y016668D02*
X003121Y016668D01*
X003121Y016509D02*
X005130Y016509D01*
X005110Y016351D02*
X003121Y016351D01*
X003121Y016192D02*
X005119Y016192D01*
X005130Y016034D02*
X003121Y016034D01*
X003121Y015875D02*
X005130Y015875D01*
X005130Y015717D02*
X003121Y015717D01*
X003121Y015558D02*
X005130Y015558D01*
X005145Y015400D02*
X003106Y015400D01*
X003121Y016826D02*
X004315Y016826D01*
X004157Y016985D02*
X003121Y016985D01*
X003121Y017144D02*
X003998Y017144D01*
X003840Y017302D02*
X003141Y017302D01*
X003134Y017461D02*
X003681Y017461D01*
X003523Y017619D02*
X003121Y017619D01*
X003121Y017778D02*
X003364Y017778D01*
X003203Y018887D02*
X003121Y018887D01*
X003087Y019046D02*
X003316Y019046D01*
X003316Y019204D02*
X002736Y019204D01*
X002736Y019363D02*
X003316Y019363D01*
X003243Y019521D02*
X002882Y019521D01*
X002882Y019680D02*
X003169Y019680D01*
X003169Y019838D02*
X002882Y019838D01*
X002882Y019997D02*
X003169Y019997D01*
X003169Y020155D02*
X002873Y020155D01*
X002882Y020314D02*
X003169Y020314D01*
X003169Y020472D02*
X002882Y020472D01*
X002882Y020631D02*
X003169Y020631D01*
X003169Y020789D02*
X002824Y020789D01*
X002866Y020948D02*
X004016Y020948D01*
X004022Y021106D02*
X002855Y021106D01*
X002755Y021265D02*
X004180Y021265D01*
X005206Y020631D02*
X005246Y020631D01*
X005246Y020472D02*
X005206Y020472D01*
X005206Y020314D02*
X005246Y020314D01*
X005604Y020314D02*
X005876Y020314D01*
X006576Y020314D02*
X006876Y020314D01*
X007506Y020243D02*
X007756Y020493D01*
X007756Y020933D01*
X007475Y021213D01*
X007756Y021493D01*
X007756Y021892D01*
X009916Y019726D01*
X009916Y019726D01*
X009977Y019665D01*
X009989Y019653D01*
X009958Y019653D01*
X009833Y019601D01*
X009737Y019506D01*
X009686Y019381D01*
X009686Y019350D01*
X009366Y019670D01*
X009366Y019781D01*
X009314Y019906D01*
X009218Y020001D01*
X009093Y020053D01*
X008958Y020053D01*
X008833Y020001D01*
X008737Y019906D01*
X008686Y019781D01*
X008686Y019645D01*
X008737Y019520D01*
X008833Y019425D01*
X008958Y019373D01*
X009069Y019373D01*
X009839Y018603D01*
X012839Y018603D01*
X012876Y018513D01*
X013025Y018364D01*
X013027Y018363D01*
X012932Y018363D01*
X012886Y018351D01*
X012845Y018327D01*
X012812Y018294D01*
X012788Y018252D01*
X012776Y018207D01*
X012776Y017833D01*
X013306Y017833D01*
X013306Y017793D01*
X013346Y017793D01*
X013346Y017263D01*
X013719Y017263D01*
X013765Y017275D01*
X013806Y017299D01*
X013840Y017332D01*
X013863Y017374D01*
X013876Y017419D01*
X013876Y017514D01*
X013876Y017513D01*
X014025Y017364D01*
X014220Y017283D01*
X014346Y017283D01*
X014766Y016864D01*
X014766Y014962D01*
X014376Y014573D01*
X013954Y014573D01*
X013822Y014518D01*
X013276Y013973D01*
X011375Y013973D01*
X011031Y014317D01*
X010930Y014418D01*
X010797Y014473D01*
X010506Y014473D01*
X010506Y014903D01*
X010463Y015006D01*
X010440Y015029D01*
X010460Y015077D01*
X010460Y015373D01*
X010497Y015410D01*
X010497Y016015D01*
X010460Y016053D01*
X010460Y016514D01*
X010417Y016617D01*
X009563Y017472D01*
X009484Y017550D01*
X009381Y017593D01*
X007506Y017593D01*
X007506Y020243D01*
X007506Y020155D02*
X009488Y020155D01*
X009646Y019997D02*
X009223Y019997D01*
X009342Y019838D02*
X009804Y019838D01*
X009962Y019680D02*
X009366Y019680D01*
X009515Y019521D02*
X009753Y019521D01*
X009686Y019363D02*
X009673Y019363D01*
X009396Y019046D02*
X007506Y019046D01*
X007506Y019204D02*
X009238Y019204D01*
X009079Y019363D02*
X007506Y019363D01*
X007506Y019521D02*
X008737Y019521D01*
X008686Y019680D02*
X007506Y019680D01*
X007506Y019838D02*
X008709Y019838D01*
X008828Y019997D02*
X007506Y019997D01*
X007576Y020314D02*
X009330Y020314D01*
X009172Y020472D02*
X007734Y020472D01*
X007756Y020631D02*
X009014Y020631D01*
X008856Y020789D02*
X007756Y020789D01*
X007741Y020948D02*
X008698Y020948D01*
X008539Y021106D02*
X007582Y021106D01*
X007527Y021265D02*
X008381Y021265D01*
X008223Y021423D02*
X007685Y021423D01*
X007756Y021582D02*
X008065Y021582D01*
X007907Y021740D02*
X007756Y021740D01*
X007506Y018887D02*
X009555Y018887D01*
X009713Y018729D02*
X007506Y018729D01*
X007506Y018570D02*
X012853Y018570D01*
X012978Y018412D02*
X007506Y018412D01*
X007506Y018253D02*
X012788Y018253D01*
X012776Y018095D02*
X007506Y018095D01*
X007506Y017936D02*
X012776Y017936D01*
X012776Y017793D02*
X012776Y017419D01*
X012788Y017374D01*
X012812Y017332D01*
X012845Y017299D01*
X012886Y017275D01*
X012932Y017263D01*
X013306Y017263D01*
X013306Y017793D01*
X012776Y017793D01*
X012776Y017778D02*
X007506Y017778D01*
X007506Y017619D02*
X012776Y017619D01*
X012776Y017461D02*
X009574Y017461D01*
X009733Y017302D02*
X012842Y017302D01*
X013306Y017302D02*
X013346Y017302D01*
X013346Y017461D02*
X013306Y017461D01*
X013306Y017619D02*
X013346Y017619D01*
X013346Y017778D02*
X013306Y017778D01*
X013876Y017461D02*
X013929Y017461D01*
X013809Y017302D02*
X014174Y017302D01*
X014486Y017144D02*
X009891Y017144D01*
X010050Y016985D02*
X014644Y016985D01*
X014766Y016826D02*
X010208Y016826D01*
X010367Y016668D02*
X014766Y016668D01*
X014766Y016509D02*
X010460Y016509D01*
X010460Y016351D02*
X014766Y016351D01*
X014766Y016192D02*
X010460Y016192D01*
X010479Y016034D02*
X014766Y016034D01*
X014766Y015875D02*
X010497Y015875D01*
X010497Y015717D02*
X014766Y015717D01*
X014766Y015558D02*
X010497Y015558D01*
X010487Y015400D02*
X014766Y015400D01*
X014766Y015241D02*
X010460Y015241D01*
X010460Y015083D02*
X014766Y015083D01*
X014728Y014924D02*
X010497Y014924D01*
X010506Y014766D02*
X014569Y014766D01*
X014411Y014607D02*
X010506Y014607D01*
X010855Y014449D02*
X013752Y014449D01*
X013594Y014290D02*
X011057Y014290D01*
X011216Y014132D02*
X013435Y014132D01*
X013277Y013973D02*
X011374Y013973D01*
X009900Y015370D02*
X009777Y015370D01*
X009726Y015318D01*
X009721Y015322D01*
X009739Y015333D01*
X009773Y015366D01*
X009796Y015407D01*
X009809Y015453D01*
X009809Y015713D01*
X009471Y015713D01*
X009134Y015713D01*
X009134Y015453D01*
X009146Y015407D01*
X009168Y015370D01*
X009108Y015370D01*
X009077Y015339D01*
X009090Y015362D01*
X009102Y015407D01*
X009102Y015629D01*
X008744Y015629D01*
X008744Y015666D01*
X009102Y015666D01*
X009102Y015888D01*
X009090Y015934D01*
X009066Y015975D01*
X009033Y016008D01*
X008992Y016032D01*
X008946Y016044D01*
X008744Y016044D01*
X008744Y015666D01*
X008707Y015666D01*
X008707Y015629D01*
X008349Y015629D01*
X008349Y015407D01*
X008361Y015362D01*
X008385Y015321D01*
X008406Y015299D01*
X008369Y015261D01*
X008369Y014781D01*
X007314Y015836D01*
X007400Y015836D01*
X007446Y015848D01*
X007487Y015872D01*
X007521Y015906D01*
X007545Y015947D01*
X007557Y015992D01*
X007557Y016195D01*
X007179Y016195D01*
X007179Y016231D01*
X007557Y016231D01*
X007557Y016434D01*
X007545Y016479D01*
X007525Y016513D01*
X007545Y016547D01*
X007557Y016592D01*
X007557Y016795D01*
X007179Y016795D01*
X007179Y016831D01*
X007557Y016831D01*
X007557Y017033D01*
X009210Y017033D01*
X009900Y016343D01*
X009900Y016053D01*
X009862Y016015D01*
X009862Y015410D01*
X009900Y015373D01*
X009900Y015370D01*
X009873Y015400D02*
X009792Y015400D01*
X009809Y015558D02*
X009862Y015558D01*
X009862Y015717D02*
X009809Y015717D01*
X009809Y015713D02*
X009809Y015973D01*
X009796Y016019D01*
X009773Y016060D01*
X009739Y016093D01*
X009698Y016117D01*
X009652Y016129D01*
X009471Y016129D01*
X009290Y016129D01*
X009244Y016117D01*
X009203Y016093D01*
X009170Y016060D01*
X009146Y016019D01*
X009134Y015973D01*
X009134Y015713D01*
X009471Y015713D01*
X009471Y015713D01*
X009471Y016129D01*
X009471Y015713D01*
X009471Y015713D01*
X009809Y015713D01*
X009809Y015875D02*
X009862Y015875D01*
X009881Y016034D02*
X009788Y016034D01*
X009900Y016192D02*
X007557Y016192D01*
X007557Y016034D02*
X008467Y016034D01*
X008459Y016032D02*
X008418Y016008D01*
X008385Y015975D01*
X008361Y015934D01*
X008349Y015888D01*
X008349Y015666D01*
X008707Y015666D01*
X008707Y016044D01*
X008505Y016044D01*
X008459Y016032D01*
X008349Y015875D02*
X007491Y015875D01*
X007433Y015717D02*
X008349Y015717D01*
X008349Y015558D02*
X007591Y015558D01*
X007750Y015400D02*
X008351Y015400D01*
X008369Y015241D02*
X007908Y015241D01*
X008067Y015083D02*
X008369Y015083D01*
X008369Y014924D02*
X008225Y014924D01*
X008707Y015717D02*
X008744Y015717D01*
X008744Y015875D02*
X008707Y015875D01*
X008707Y016034D02*
X008744Y016034D01*
X008984Y016034D02*
X009155Y016034D01*
X009134Y015875D02*
X009102Y015875D01*
X009102Y015717D02*
X009134Y015717D01*
X009134Y015558D02*
X009102Y015558D01*
X009100Y015400D02*
X009150Y015400D01*
X009471Y015713D02*
X009471Y015713D01*
X009471Y015717D02*
X009471Y015717D01*
X009471Y015875D02*
X009471Y015875D01*
X009471Y016034D02*
X009471Y016034D01*
X009575Y016668D02*
X007557Y016668D01*
X007527Y016509D02*
X009733Y016509D01*
X009892Y016351D02*
X007557Y016351D01*
X007179Y016351D02*
X007142Y016351D01*
X007142Y016231D02*
X007142Y016795D01*
X007179Y016795D01*
X007179Y016590D01*
X007179Y016231D01*
X007142Y016231D01*
X007142Y016509D02*
X007179Y016509D01*
X007179Y016668D02*
X007142Y016668D01*
X007179Y016826D02*
X009416Y016826D01*
X009258Y016985D02*
X007557Y016985D01*
X006506Y015241D02*
X000606Y015241D01*
X000606Y015083D02*
X006506Y015083D01*
X006603Y014924D02*
X000606Y014924D01*
X000606Y014766D02*
X007261Y014766D01*
X007262Y014607D02*
X006593Y014607D01*
X006558Y014607D02*
X006538Y014607D01*
X006502Y014607D02*
X000606Y014607D01*
X000606Y014449D02*
X006161Y014449D01*
X006049Y014290D02*
X000606Y014290D01*
X000606Y014132D02*
X006003Y014132D01*
X006538Y014132D02*
X006558Y014132D01*
X006558Y014290D02*
X006538Y014290D01*
X006538Y014449D02*
X006558Y014449D01*
X006934Y014449D02*
X007123Y014449D01*
X006114Y016034D02*
X006000Y016034D01*
X006011Y016192D02*
X006114Y016192D01*
X006114Y017039D02*
X006020Y017039D01*
X006020Y017085D01*
X005565Y017085D01*
X005565Y017085D01*
X006020Y017085D01*
X006020Y017131D01*
X006169Y017131D01*
X006114Y017076D01*
X006114Y017039D01*
X005565Y017085D02*
X005110Y017085D01*
X005565Y017085D01*
X005565Y017085D01*
X002286Y019046D02*
X002083Y019046D01*
X002102Y018887D02*
X002251Y018887D01*
X002251Y018729D02*
X002102Y018729D01*
X002102Y018570D02*
X002251Y018570D01*
X002251Y018412D02*
X002057Y018412D01*
X002170Y017461D02*
X002239Y017461D01*
X001371Y019521D02*
X001336Y019521D01*
X002155Y021265D02*
X002296Y021265D01*
X000842Y013973D02*
X000606Y013973D01*
X000606Y013815D02*
X000642Y013815D01*
X001336Y029190D02*
X007153Y029190D01*
X007126Y029348D02*
X001336Y029348D01*
X001336Y029507D02*
X007086Y029507D01*
X007121Y029665D02*
X001336Y029665D01*
X001336Y029824D02*
X007287Y029824D01*
X007360Y029982D02*
X001336Y029982D01*
X001336Y030141D02*
X007201Y030141D01*
X007043Y030299D02*
X002056Y030299D01*
X001795Y030299D02*
X001336Y030299D01*
X001336Y030458D02*
X001622Y030458D01*
X001586Y030616D02*
X001336Y030616D01*
X001336Y030775D02*
X001624Y030775D01*
X001810Y030933D02*
X001336Y030933D01*
X001336Y031092D02*
X002190Y031092D01*
X002191Y030933D02*
X002041Y030933D01*
X002282Y031250D02*
X001336Y031250D01*
X001336Y031409D02*
X009456Y031409D01*
X009456Y031567D02*
X001336Y031567D01*
X001336Y031726D02*
X009456Y031726D01*
X009456Y031884D02*
X001336Y031884D01*
X001336Y032043D02*
X005087Y032043D01*
X004982Y032201D02*
X001336Y032201D01*
X001336Y032360D02*
X004966Y032360D01*
X005022Y032518D02*
X001336Y032518D01*
X001336Y032677D02*
X005086Y032677D01*
X005326Y032313D02*
X005326Y033213D01*
X005188Y033213D01*
X005473Y033469D02*
X006553Y033469D01*
X006553Y033374D02*
X006565Y033329D01*
X006589Y033288D01*
X006622Y033254D01*
X006663Y033230D01*
X006709Y033218D01*
X007108Y033218D01*
X007108Y033636D01*
X006553Y033636D01*
X006553Y033374D01*
X006575Y033311D02*
X005545Y033311D01*
X005566Y033152D02*
X009456Y033152D01*
X009456Y032994D02*
X005566Y032994D01*
X005566Y032835D02*
X009456Y032835D01*
X009456Y032677D02*
X005566Y032677D01*
X005630Y032518D02*
X009456Y032518D01*
X009456Y032360D02*
X005686Y032360D01*
X005669Y032201D02*
X009456Y032201D01*
X009456Y032043D02*
X005564Y032043D01*
X004826Y033178D02*
X004826Y033213D01*
X004826Y033178D02*
X004126Y033178D01*
X003829Y032835D02*
X003822Y032835D01*
X004422Y032835D02*
X004640Y032835D01*
X004578Y033469D02*
X004475Y033469D01*
X004482Y033628D02*
X006553Y033628D01*
X006553Y033790D02*
X007108Y033790D01*
X007108Y033636D01*
X007263Y033636D01*
X007263Y033790D01*
X007818Y033790D01*
X007818Y034052D01*
X007806Y034097D01*
X007782Y034138D01*
X007749Y034172D01*
X007708Y034196D01*
X007662Y034208D01*
X007263Y034208D01*
X007263Y033790D01*
X007108Y033790D01*
X007108Y034208D01*
X006709Y034208D01*
X006663Y034196D01*
X006622Y034172D01*
X006589Y034138D01*
X006565Y034097D01*
X006553Y034052D01*
X006553Y033790D01*
X006553Y033945D02*
X004515Y033945D01*
X004482Y033786D02*
X007108Y033786D01*
X007263Y033786D02*
X009053Y033786D01*
X009053Y033628D02*
X007818Y033628D01*
X007818Y033636D02*
X007263Y033636D01*
X007263Y033218D01*
X007662Y033218D01*
X007708Y033230D01*
X007749Y033254D01*
X007782Y033288D01*
X007806Y033329D01*
X007818Y033374D01*
X007818Y033636D01*
X007818Y033469D02*
X009053Y033469D01*
X009074Y033311D02*
X007796Y033311D01*
X007818Y033945D02*
X009053Y033945D01*
X009062Y034103D02*
X007803Y034103D01*
X007263Y034103D02*
X007108Y034103D01*
X007108Y033945D02*
X007263Y033945D01*
X007263Y033628D02*
X007108Y033628D01*
X007108Y033469D02*
X007263Y033469D01*
X007263Y033311D02*
X007108Y033311D01*
X006568Y034103D02*
X004670Y034103D01*
X004911Y034262D02*
X012100Y034262D01*
X012113Y034420D02*
X004938Y034420D01*
X004938Y034579D02*
X012113Y034579D01*
X012113Y034737D02*
X012207Y034830D01*
X012654Y034830D01*
X012726Y034759D01*
X012797Y034830D01*
X013245Y034830D01*
X013338Y034737D01*
X013640Y034737D01*
X013695Y034868D02*
X013546Y034508D01*
X013546Y034309D01*
X013529Y034349D01*
X013338Y034540D01*
X013338Y034737D01*
X013338Y034579D02*
X013575Y034579D01*
X013546Y034420D02*
X013458Y034420D01*
X013326Y034213D02*
X013026Y034513D01*
X013021Y034513D01*
X013086Y034103D02*
X012782Y034103D01*
X012782Y033945D02*
X013086Y033945D01*
X013118Y033786D02*
X012782Y033786D01*
X012745Y033628D02*
X013272Y033628D01*
X013430Y033469D02*
X012802Y033469D01*
X012802Y033311D02*
X013589Y033311D01*
X013747Y033152D02*
X012802Y033152D01*
X012802Y033260D02*
X012802Y033038D01*
X012790Y032992D01*
X012766Y032951D01*
X012733Y032918D01*
X012692Y032894D01*
X012646Y032882D01*
X012444Y032882D01*
X012444Y033260D01*
X012802Y033260D01*
X012790Y032994D02*
X013906Y032994D01*
X013916Y032835D02*
X009876Y032835D01*
X009876Y032677D02*
X013916Y032677D01*
X013957Y032518D02*
X009876Y032518D01*
X009876Y032360D02*
X013260Y032360D01*
X013306Y032360D02*
X013346Y032360D01*
X013391Y032360D02*
X014086Y032360D01*
X013964Y032201D02*
X013715Y032201D01*
X013826Y032043D02*
X013847Y032043D01*
X013346Y032043D02*
X013306Y032043D01*
X013306Y032201D02*
X013346Y032201D01*
X013346Y031884D02*
X013306Y031884D01*
X012936Y032201D02*
X009876Y032201D01*
X009876Y032043D02*
X012825Y032043D01*
X012780Y031884D02*
X009876Y031884D01*
X009876Y031726D02*
X012783Y031726D01*
X012834Y031567D02*
X009876Y031567D01*
X009876Y031409D02*
X012824Y031409D01*
X012666Y031250D02*
X009876Y031250D01*
X009456Y031250D02*
X002769Y031250D01*
X003229Y032835D02*
X001336Y032835D01*
X002003Y032994D02*
X003169Y032994D01*
X003169Y033152D02*
X002162Y033152D01*
X002320Y033311D02*
X003169Y033311D01*
X003177Y033469D02*
X002479Y033469D01*
X002637Y033628D02*
X003169Y033628D01*
X003169Y033786D02*
X002736Y033786D01*
X002736Y033945D02*
X003169Y033945D01*
X003169Y034103D02*
X002736Y034103D01*
X003220Y034262D02*
X003231Y034262D01*
X004103Y035033D02*
X013860Y035033D01*
X013695Y034868D01*
X013722Y034896D02*
X004240Y034896D01*
X004240Y034895D02*
X004103Y035033D01*
X004240Y034895D02*
X004240Y034830D01*
X004254Y034830D01*
X004326Y034759D01*
X004397Y034830D01*
X004845Y034830D01*
X004938Y034737D01*
X007444Y031092D02*
X009430Y031092D01*
X009349Y030933D02*
X007603Y030933D01*
X007761Y030775D02*
X009190Y030775D01*
X009032Y030616D02*
X007920Y030616D01*
X008078Y030458D02*
X008873Y030458D01*
X008715Y030299D02*
X008237Y030299D01*
X008263Y030141D02*
X008372Y030141D01*
X009867Y028556D02*
X009869Y028556D01*
X010562Y028556D02*
X012859Y028556D01*
X012839Y028603D02*
X012839Y028603D01*
X012796Y027790D02*
X012457Y027790D01*
X012457Y027631D01*
X012079Y027631D01*
X012079Y027595D01*
X012457Y027595D01*
X012457Y027392D01*
X012445Y027347D01*
X012421Y027306D01*
X012387Y027272D01*
X012382Y027269D01*
X012382Y027223D01*
X012986Y027223D01*
X013025Y027262D01*
X013148Y027313D01*
X013025Y027364D01*
X012876Y027513D01*
X012796Y027708D01*
X012796Y027790D01*
X012796Y027763D02*
X012457Y027763D01*
X012457Y027446D02*
X012943Y027446D01*
X012838Y027605D02*
X012079Y027605D01*
X012403Y027288D02*
X013086Y027288D01*
X012856Y026103D02*
X012382Y026103D01*
X012382Y026046D01*
X012328Y025991D01*
X012414Y025906D01*
X012466Y025781D01*
X012466Y025645D01*
X012415Y025523D01*
X012856Y025523D01*
X012855Y025525D01*
X012816Y025602D01*
X012789Y025684D01*
X012776Y025770D01*
X012776Y025793D01*
X013306Y025793D01*
X013306Y025833D01*
X012776Y025833D01*
X012776Y025856D01*
X012789Y025942D01*
X012816Y026024D01*
X012855Y026101D01*
X012856Y026103D01*
X012814Y026020D02*
X012356Y026020D01*
X012432Y025861D02*
X012776Y025861D01*
X012786Y025703D02*
X012466Y025703D01*
X012424Y025544D02*
X012845Y025544D01*
X012858Y025069D02*
X010379Y025069D01*
X010315Y025227D02*
X010221Y025227D01*
X010156Y025386D02*
X010062Y025386D01*
X010016Y025544D02*
X009904Y025544D01*
X009898Y025703D02*
X010016Y025703D01*
X009879Y025861D02*
X009876Y025861D01*
X010821Y031092D02*
X012507Y031092D01*
X012444Y032994D02*
X012407Y032994D01*
X012407Y033152D02*
X012444Y033152D01*
X012049Y033152D02*
X009876Y033152D01*
X009876Y032994D02*
X012061Y032994D01*
X012049Y033311D02*
X010257Y033311D01*
X010279Y033469D02*
X012049Y033469D01*
X012106Y033628D02*
X010279Y033628D01*
X010279Y033786D02*
X012069Y033786D01*
X012069Y033945D02*
X010279Y033945D01*
X010270Y034103D02*
X012069Y034103D01*
X013326Y034213D02*
X013326Y033913D01*
X014163Y033075D01*
X014326Y033075D01*
X014326Y032751D02*
X014326Y031813D01*
D29*
X014626Y031813D01*
X015126Y031313D01*
X015126Y026613D01*
X014326Y025813D01*
X015126Y025013D01*
X015126Y018613D01*
X014326Y017813D01*
X015126Y017013D01*
X015126Y014813D01*
X014526Y014213D01*
X014026Y014213D01*
X013426Y013613D01*
X011226Y013613D01*
X010726Y014113D01*
X010226Y014113D01*
D30*
X010226Y014113D03*
X010726Y014113D03*
X005326Y032313D03*
D31*
X005291Y032378D01*
X004126Y033178D02*
X003526Y033178D01*
X007226Y020713D02*
X007226Y017606D01*
X006883Y017264D01*
X006526Y016848D01*
X006491Y016813D01*
X006883Y017264D02*
X006926Y017313D01*
X009326Y017313D01*
X010180Y016459D01*
X010180Y015713D01*
X010180Y015133D01*
X010060Y015013D01*
X010226Y014848D01*
X010226Y014113D01*
X009391Y015013D02*
X009304Y014926D01*
X008778Y014926D01*
X008726Y014978D01*
X009304Y014926D02*
X009304Y014058D01*
M02*
